<svg width="14" height="14" viewBox="0 0 14 14" fill="none" xmlns="http://www.w3.org/2000/svg">
<g clip-path="url(#clip0_5580_86481)">
<path d="M9.04688 3.72031C9.74168 3.74095 10.4325 3.60838 11.0703 3.33203" stroke="#4B5A6B" stroke-linecap="round" stroke-linejoin="round"/>
<path d="M7.8125 0.87501C7.94853 0.857555 8.08551 0.848423 8.22266 0.847666C8.87591 0.845928 9.51022 1.06701 10.0209 1.47442C10.5315 1.88182 10.888 2.45119 11.0314 3.08851C11.1748 3.72583 11.0965 4.393 10.8096 4.97986C10.5227 5.56672 10.0442 6.03819 9.45312 6.31642" stroke="#4B5A6B" stroke-linecap="round" stroke-linejoin="round"/>
<path d="M3.30469 13.1523C3.30469 11.847 3.82324 10.5951 4.74627 9.67205C5.6693 8.74902 6.9212 8.23047 8.22656 8.23047C9.53192 8.23047 10.7838 8.74902 11.7069 9.67205C12.6299 10.5951 13.1484 11.847 13.1484 13.1523" stroke="#4B5A6B" stroke-linecap="round" stroke-linejoin="round"/>
<path d="M5.76562 2.48828L5.35547 1.66797H2.89453L2.48437 2.48828H1.66406C1.4465 2.48828 1.23785 2.57471 1.08401 2.72855C0.930176 2.88238 0.84375 3.09103 0.84375 3.30859V5.76953C0.84375 5.98709 0.930176 6.19574 1.08401 6.34958C1.23785 6.50342 1.4465 6.58984 1.66406 6.58984H6.58594C6.8035 6.58984 7.01215 6.50342 7.16599 6.34958C7.31982 6.19574 7.40625 5.98709 7.40625 5.76953V3.30859C7.40625 3.09103 7.31982 2.88238 7.16599 2.72855C7.01215 2.57471 6.8035 2.48828 6.58594 2.48828H5.76562Z" stroke="#4B5A6B" stroke-linecap="round" stroke-linejoin="round"/>
<path d="M3.09375 4.33281C3.09375 4.46783 3.12034 4.60152 3.17201 4.72626C3.22368 4.851 3.29941 4.96434 3.39488 5.05981C3.49035 5.15528 3.60369 5.23101 3.72843 5.28268C3.85317 5.33434 3.98686 5.36094 4.12187 5.36094C4.25689 5.36094 4.39058 5.33434 4.51532 5.28268C4.64006 5.23101 4.7534 5.15528 4.84887 5.05981C4.94434 4.96434 5.02007 4.851 5.07174 4.72626C5.12341 4.60152 5.15 4.46783 5.15 4.33281C5.15 4.1978 5.12341 4.0641 5.07174 3.93937C5.02007 3.81463 4.94434 3.70129 4.84887 3.60582C4.7534 3.51035 4.64006 3.43462 4.51532 3.38295C4.39058 3.33128 4.25689 3.30469 4.12187 3.30469C3.98686 3.30469 3.85317 3.33128 3.72843 3.38295C3.60369 3.43462 3.49035 3.51035 3.39488 3.60582C3.29941 3.70129 3.22368 3.81463 3.17201 3.93937C3.12034 4.0641 3.09375 4.1978 3.09375 4.33281Z" stroke="#4B5A6B" stroke-linecap="round" stroke-linejoin="round"/>
</g>
<defs>
<clipPath id="clip0_5580_86481">
<rect width="14" height="14" fill="white"/>
</clipPath>
</defs>
</svg>
