<svg width="16" height="16" viewBox="0 0 16 16" fill="none" xmlns="http://www.w3.org/2000/svg">
<g id="Frame" clip-path="url(#clip0_5586_172560)">
<path id="Vector" d="M3.59589 5.99024C3.47224 6.06279 3.36687 6.16273 3.28789 6.28238C3.20892 6.40203 3.15843 6.5382 3.14032 6.68042C3.12221 6.82263 3.13696 6.96711 3.18343 7.10273C3.22991 7.23836 3.30687 7.36152 3.40839 7.46274L8.54152 12.5959C8.64274 12.6974 8.7659 12.7743 8.90152 12.8208C9.03715 12.8673 9.18162 12.882 9.32384 12.8639C9.46605 12.8458 9.60222 12.7953 9.72187 12.7164C9.84152 12.6374 9.94147 12.532 10.014 12.4084C10.622 11.3623 10.8034 10.1222 10.5203 8.94586L14.6009 6.34899C14.7193 6.27365 14.8194 6.17267 14.8936 6.05351C14.9678 5.93434 15.0143 5.80003 15.0296 5.6605C15.045 5.52096 15.0288 5.37975 14.9823 5.2473C14.9358 5.11485 14.8601 4.99454 14.7609 4.89524L11.109 1.24336C11.0098 1.1441 10.8895 1.0684 10.7571 1.02183C10.6246 0.975268 10.4834 0.959036 10.3439 0.974334C10.2044 0.989631 10.0701 1.03607 9.95087 1.11022C9.83168 1.18436 9.73066 1.28433 9.65527 1.40274L7.05839 5.48399C5.88208 5.2009 4.64192 5.38223 3.59589 5.99024Z" stroke="#4F4F4F" stroke-linecap="round" stroke-linejoin="round"/>
<path id="Vector_2" d="M5.97062 10.0273L0.96875 15.0292" stroke="#4F4F4F" stroke-linecap="round" stroke-linejoin="round"/>
</g>
<defs>
<clipPath id="clip0_5586_172560">
<rect width="16" height="16" fill="white"/>
</clipPath>
</defs>
</svg>
