<svg width="14" height="14" viewBox="0 0 14 14" fill="none" xmlns="http://www.w3.org/2000/svg">
<g id="Frame">
<path id="Vector" d="M4.125 1.39453C3.25476 1.39453 2.42016 1.74023 1.80481 2.35559C1.18945 2.97094 0.84375 3.80554 0.84375 4.67578C0.84375 5.54602 1.18945 6.38061 1.80481 6.99595C2.42016 7.61135 3.25476 7.95703 4.125 7.95703H9.04687C9.48197 7.95703 9.89929 7.78416 10.207 7.47649C10.5146 7.16882 10.6875 6.7515 10.6875 6.31641V5.08594L12.6951 4.08242C12.8314 4.01426 12.9459 3.9095 13.026 3.77987C13.1061 3.65025 13.1485 3.50088 13.1484 3.34852V1.80469C13.1484 1.69591 13.1052 1.59158 13.0283 1.51466C12.9514 1.43775 12.8471 1.39453 12.7383 1.39453H4.125Z" stroke="#4B5A6B" stroke-width="0.875" stroke-linecap="round" stroke-linejoin="round"/>
<path id="Vector_2" d="M12.3281 4.26562V6.31641C12.3281 6.53395 12.2417 6.74264 12.0878 6.89648C11.934 7.05031 11.7254 7.13672 11.5078 7.13672H10.4688" stroke="#4B5A6B" stroke-width="0.875" stroke-linecap="round" stroke-linejoin="round"/>
<path id="Vector_3" d="M4.94531 7.95703V9.77977C4.91981 10.1902 4.73299 10.5739 4.42563 10.8472C4.11827 11.1204 3.71531 11.261 3.30469 11.2383H0.84375" stroke="#4B5A6B" stroke-width="0.875" stroke-linecap="round" stroke-linejoin="round"/>
<path id="Vector_4" d="M0.84375 10.0078V12.4687" stroke="#4B5A6B" stroke-width="0.875" stroke-linecap="round" stroke-linejoin="round"/>
<path id="Vector_5" d="M0.84375 4.67578H2.89453" stroke="#4B5A6B" stroke-width="0.875" stroke-linecap="round" stroke-linejoin="round"/>
<path id="Vector_6" d="M4.94727 5.08594C4.834 5.08594 4.74219 4.99412 4.74219 4.88086C4.74219 4.7676 4.834 4.67578 4.94727 4.67578" stroke="#4B5A6B" stroke-width="0.875"/>
<path id="Vector_7" d="M4.95312 5.08594C5.06639 5.08594 5.1582 4.99412 5.1582 4.88086C5.1582 4.7676 5.06639 4.67578 4.95312 4.67578" stroke="#4B5A6B" stroke-width="0.875"/>
</g>
</svg>
