<svg width="14" height="14" viewBox="0 0 14 14" fill="none" xmlns="http://www.w3.org/2000/svg">
<g clip-path="url(#clip0_5580_86491)">
<path d="M12.7504 3.64511C12.6764 4.01542 12.4763 4.34864 12.1843 4.58806C11.8923 4.82749 11.5262 4.95833 11.1486 4.9583H2.85137C2.47373 4.95833 2.10776 4.82749 1.81572 4.58806C1.52369 4.34864 1.32364 4.01542 1.24963 3.64511L0.89084 1.85173C0.867159 1.73324 0.870062 1.61099 0.899339 1.49377C0.928617 1.37655 0.98354 1.26728 1.06015 1.17385C1.13676 1.08042 1.23314 1.00515 1.34235 0.953473C1.45157 0.901794 1.57089 0.874992 1.69171 0.875H12.3083C12.4291 0.874992 12.5484 0.901794 12.6577 0.953473C12.7669 1.00515 12.8632 1.08042 12.9399 1.17385C13.0165 1.26728 13.0714 1.37655 13.1006 1.49377C13.1299 1.61099 13.1328 1.73324 13.1092 1.85173L12.7504 3.64511Z" stroke="#4B5A6B" stroke-width="0.875" stroke-linecap="round" stroke-linejoin="round"/>
<path d="M2.549 4.92969C2.02964 5.73106 1.73608 6.65771 1.69926 7.61196C1.66244 8.5662 1.88372 9.51268 2.33977 10.3517C2.79583 11.1907 3.46977 11.8911 4.29057 12.3792C5.11138 12.8673 6.04862 13.1249 7.00358 13.1249C7.95853 13.1249 8.89582 12.8673 9.71662 12.3792C10.5374 11.8911 11.2114 11.1907 11.6674 10.3517C12.1235 9.51268 12.3447 8.5662 12.3079 7.61196C12.2711 6.65771 11.9776 5.73106 11.4582 4.92969" stroke="#4B5A6B" stroke-width="0.875" stroke-linecap="round" stroke-linejoin="round"/>
<path d="M4.96094 12.7145V9.4479C4.96094 8.90638 5.17604 8.38713 5.55892 8.0042C5.9418 7.62134 6.46111 7.40625 7.00257 7.40625C7.54409 7.40625 8.06335 7.62134 8.44627 8.0042C8.82914 8.38713 9.04422 8.90638 9.04422 9.4479V12.7145" stroke="#4B5A6B" stroke-width="0.875" stroke-linecap="round" stroke-linejoin="round"/>
<path d="M7.00102 10.8771C6.88831 10.8771 6.79688 10.7857 6.79688 10.673C6.79688 10.5602 6.88831 10.4688 7.00102 10.4688" stroke="#4B5A6B" stroke-width="0.875"/>
<path d="M7 10.8771C7.11277 10.8771 7.20415 10.7857 7.20415 10.673C7.20415 10.5602 7.11277 10.4688 7 10.4688" stroke="#4B5A6B" stroke-width="0.875"/>
</g>
<defs>
<clipPath id="clip0_5580_86491">
<rect width="14" height="14" fill="white"/>
</clipPath>
</defs>
</svg>
