<svg width="16" height="16" viewBox="0 0 16 16" fill="none" xmlns="http://www.w3.org/2000/svg">
<g id="User Experience Design" clip-path="url(#clip0_5586_172565)">
<path id="Vector" d="M7.84352 9.02689C8.62872 9.02689 9.26518 8.39043 9.26518 7.60523C9.26518 6.82009 8.62872 6.18359 7.84352 6.18359C7.05838 6.18359 6.42188 6.82009 6.42188 7.60523C6.42188 8.39043 7.05838 9.02689 7.84352 9.02689Z" stroke="#4F4F4F" stroke-miterlimit="10" stroke-linecap="round" stroke-linejoin="round"/>
<path id="Vector_2" d="M10.2263 11.2337C9.91498 10.2139 8.95098 9.44922 7.84358 9.44922C6.73625 9.44922 5.77221 10.2139 5.46094 11.2337" stroke="#4F4F4F" stroke-miterlimit="10" stroke-linecap="round" stroke-linejoin="round"/>
<path id="Vector_3" d="M14.0966 8.70671C14.0966 6.57713 13.0324 4.69612 11.4069 3.56641M4.27563 3.56641C2.65008 4.69612 1.58594 6.57713 1.58594 8.70671C1.58594 8.91217 1.59584 9.11537 1.61521 9.31577M9.22938 14.8074C8.78291 14.9086 8.31831 14.962 7.84124 14.962C6.85764 14.962 5.92704 14.735 5.09901 14.3304" stroke="#4F4F4F" stroke-linecap="round"/>
<path id="Vector_4" d="M0.625 12.59C0.625 13.0334 0.801157 13.4587 1.11472 13.7723C1.42828 14.0858 1.85356 14.262 2.297 14.262C2.74044 14.262 3.16572 14.0858 3.47928 13.7723C3.79284 13.4587 3.969 13.0334 3.969 12.59C3.969 12.1465 3.79284 11.7212 3.47928 11.4077C3.16572 11.0941 2.74044 10.918 2.297 10.918C1.85356 10.918 1.42828 11.0941 1.11472 11.4077C0.801157 11.7212 0.625 12.1465 0.625 12.59Z" stroke="#4F4F4F"/>
<path id="Vector_5" d="M9.41673 4.18628H6.26562V1.03516H9.41673V4.18628Z" stroke="#4F4F4F" stroke-linejoin="round"/>
<path id="Vector_6" d="M11.3281 14.229L13.3512 10.7734L15.3743 14.229H11.3281Z" stroke="#4F4F4F" stroke-linecap="round" stroke-linejoin="round"/>
</g>
<defs>
<clipPath id="clip0_5586_172565">
<rect width="16" height="16" fill="white"/>
</clipPath>
</defs>
</svg>
