<svg xmlns="http://www.w3.org/2000/svg" width="17" height="16" viewBox="0 0 17 16" fill="none">
<g clip-path="url(#clip0_5440_129220)">
<path d="M8.25639 10.5284C8.1915 10.5284 8.12926 10.5026 8.08338 10.4567C8.0375 10.4109 8.01172 10.3486 8.01172 10.2837C8.01172 10.2188 8.0375 10.1566 8.08338 10.1107C8.12926 10.0648 8.1915 10.0391 8.25639 10.0391" stroke="#4B5A6B"/>
<path d="M8.25781 10.5284C8.3227 10.5284 8.38493 10.5026 8.43082 10.4567C8.4767 10.4109 8.50248 10.3486 8.50248 10.2837C8.50248 10.2188 8.4767 10.1566 8.43082 10.1107C8.38493 10.0648 8.3227 10.0391 8.25781 10.0391" stroke="#4B5A6B"/>
<path d="M15.199 9.07475C15.3694 8.68653 15.4467 8.26383 15.4246 7.84042C15.4025 7.41702 15.2817 7.00465 15.0718 6.63626C14.8619 6.26788 14.5688 5.95368 14.2158 5.71878C13.8629 5.48388 13.4599 5.33479 13.039 5.28342V5.24875C13.039 4.27196 12.6896 3.32738 12.0539 2.58569C11.4183 1.844 10.5384 1.35411 9.57308 1.20453C8.6078 1.05495 7.62085 1.25554 6.79055 1.77007C5.96025 2.28459 5.34136 3.07911 5.04568 4.01009C4.76147 3.92892 4.46788 3.88522 4.17235 3.88009C3.55695 3.88021 2.95305 4.04681 2.42463 4.36222C1.89621 4.67763 1.46295 5.13011 1.17076 5.67171C0.878572 6.21332 0.738331 6.82388 0.7649 7.4387C0.791469 8.05352 0.983858 8.64971 1.32168 9.16409" stroke="#4B5A6B" stroke-linecap="round" stroke-linejoin="round"/>
<path d="M7.25465 8.61233L5.90931 6.375C5.23431 6.77952 4.67559 7.35199 4.28759 8.03663C3.89959 8.72126 3.69554 9.49473 3.69531 10.2817H6.30198C6.30281 9.94486 6.39095 9.61402 6.5578 9.32144C6.72466 9.02886 6.96519 8.78454 7.25465 8.61233Z" stroke="#4B5A6B" stroke-linecap="round" stroke-linejoin="round"/>
<path d="M10.6025 6.375L9.25781 8.61233C9.54732 8.78465 9.78721 9.02908 9.95406 9.32178C10.1209 9.61447 10.209 9.94542 10.2098 10.2823H12.8165C12.8163 9.49546 12.6124 8.72204 12.2245 8.03741C11.8366 7.35277 11.278 6.78027 10.6031 6.37567L10.6025 6.375Z" stroke="#4B5A6B" stroke-linecap="round" stroke-linejoin="round"/>
<path d="M8.25492 12.2391C7.9006 12.2374 7.55356 12.1385 7.25158 11.9531L5.90625 14.1898C6.61432 14.6191 7.42653 14.8461 8.25458 14.8461C9.08264 14.8461 9.89485 14.6191 10.6029 14.1898L9.25825 11.9531C8.95608 12.1386 8.60879 12.2375 8.25425 12.2391H8.25492Z" stroke="#4B5A6B" stroke-linecap="round" stroke-linejoin="round"/>
</g>
<defs>
<clipPath id="clip0_5440_129220">
<rect width="16" height="16" fill="white" transform="translate(0.09375)"/>
</clipPath>
</defs>
</svg>