<svg xmlns="http://www.w3.org/2000/svg" width="17" height="15" viewBox="0 0 17 15" fill="none">
<g clip-path="url(#clip0_5440_129209)">
<path d="M6.92306 12.4009C5.59149 12.4009 4.31445 11.9345 3.37288 11.1044C2.43131 10.2742 1.90234 9.14826 1.90234 7.97423C1.90234 1.55465 10.6636 4.85262 14.8842 1.76629C14.9324 1.74031 14.9878 1.72656 15.0442 1.72656C15.1007 1.72656 15.1561 1.74031 15.2043 1.76629C15.256 1.78599 15.3013 1.81673 15.3363 1.85572C15.3712 1.89471 15.3945 1.94075 15.4043 1.98968C16.6911 8.60913 11.137 12.4009 6.92306 12.4009Z" stroke="#4B5A6B" stroke-width="0.75" stroke-linecap="round" stroke-linejoin="round"/>
<path d="M8.93104 6.79297C6.85031 7.29804 4.90061 8.15455 3.19022 9.31494L0.589844 11.2726" stroke="#4B5A6B" stroke-width="0.75" stroke-linecap="round" stroke-linejoin="round"/>
</g>
<defs>
<clipPath id="clip0_5440_129209">
<rect width="16.0023" height="14.109" fill="white" transform="translate(0.0898438)"/>
</clipPath>
</defs>
</svg>