<svg xmlns="http://www.w3.org/2000/svg" width="17" height="16" viewBox="0 0 17 16" fill="none">
  <g clip-path="url(#clip0_5440_92430)">
    <path d="M3.75911 13.668H12.4258C12.7794 13.668 13.1185 13.8084 13.3686 14.0585C13.6186 14.3085 13.7591 14.6477 13.7591 15.0013V15.3346C13.7591 15.423 13.724 15.5078 13.6615 15.5703C13.599 15.6329 13.5142 15.668 13.4258 15.668H2.75911C2.67071 15.668 2.58592 15.6329 2.52341 15.5703C2.4609 15.5078 2.42578 15.423 2.42578 15.3346V15.0013C2.42578 14.6477 2.56626 14.3085 2.81631 14.0585C3.06635 13.8084 3.40549 13.668 3.75911 13.668Z" stroke="#4B5A6B" stroke-linecap="round" stroke-linejoin="round"/>
    <path d="M14.0938 7.66797H15.7604" stroke="#4B5A6B" stroke-linecap="round" stroke-linejoin="round"/>
    <path d="M12.7617 3.66536L14.0951 2.33203" stroke="#4B5A6B" stroke-linecap="round" stroke-linejoin="round"/>
    <path d="M2.09245 7.33203H0.425781" stroke="#4B5A6B" stroke-linecap="round" stroke-linejoin="round"/>
    <path d="M3.42708 3.66536L2.09375 2.33203" stroke="#4B5A6B" stroke-linecap="round" stroke-linejoin="round"/>
    <path d="M8.09375 2.33203V0.332031" stroke="#4B5A6B" stroke-linecap="round" stroke-linejoin="round"/>
    <path d="M10.4284 8.66667C10.4284 8.57826 10.3933 8.49348 10.3308 8.43096C10.2682 8.36845 10.1835 8.33333 10.0951 8.33333H9.09505V7.33333C9.09505 7.24493 9.05993 7.16014 8.99742 7.09763C8.93491 7.03512 8.85012 7 8.76172 7H7.42839C7.33998 7 7.25519 7.03512 7.19268 7.09763C7.13017 7.16014 7.09505 7.24493 7.09505 7.33333V8.33333H6.09505C6.00665 8.33333 5.92186 8.36845 5.85935 8.43096C5.79684 8.49348 5.76172 8.57826 5.76172 8.66667V10C5.76172 10.0884 5.79684 10.1732 5.85935 10.2357C5.92186 10.2982 6.00665 10.3333 6.09505 10.3333H7.09505V11.3333C7.09505 11.4217 7.13017 11.5065 7.19268 11.569C7.25519 11.6315 7.33998 11.6667 7.42839 11.6667H8.76172C8.85012 11.6667 8.93491 11.6315 8.99742 11.569C9.05993 11.5065 9.09505 11.4217 9.09505 11.3333V10.3333H10.0951C10.1835 10.3333 10.2682 10.2982 10.3308 10.2357C10.3933 10.1732 10.4284 10.0884 10.4284 10V8.66667Z" stroke="#4B5A6B" stroke-linecap="round" stroke-linejoin="round"/>
    <path d="M12.4284 13.6654H3.76172V8.66536C3.76172 7.51609 4.21826 6.41389 5.03092 5.60123C5.84358 4.78858 6.94578 4.33203 8.09505 4.33203C9.24432 4.33203 10.3465 4.78858 11.1592 5.60123C11.9718 6.41389 12.4284 7.51609 12.4284 8.66536V13.6654Z" stroke="#4B5A6B" stroke-linecap="round" stroke-linejoin="round"/>
  </g>
  <defs>
    <clipPath id="clip0_5440_92430">
      <rect width="16" height="16" fill="white" transform="translate(0.09375)"/>
    </clipPath>
  </defs>
</svg>