<svg xmlns="http://www.w3.org/2000/svg" width="18" height="16" viewBox="0 0 18 16" fill="none">
<g clip-path="url(#clip0_5440_129201)">
<path d="M11.9296 15C12.6514 14.9998 13.3586 14.7877 13.97 14.388C14.5814 13.9883 15.0723 13.4172 15.3863 12.7402C15.7004 12.0631 15.8249 11.3076 15.7455 10.5603C15.6661 9.81289 15.3862 9.10396 14.9377 8.51478C14.4892 7.9256 13.8904 7.48003 13.2099 7.22917C12.5294 6.97831 11.7948 6.93233 11.0904 7.0965C10.3859 7.26067 9.7402 7.62834 9.22721 8.15734C8.71422 8.68634 8.35476 9.35525 8.19006 10.0873C7.85518 9.86406 7.47498 9.72511 7.07959 9.6815C6.6842 9.63788 6.28449 9.6908 5.91215 9.83606C5.53981 9.98131 5.20506 10.2149 4.93445 10.5184C4.66383 10.8218 4.46479 11.1867 4.35309 11.5842C4.2414 11.9817 4.22012 12.4008 4.29094 12.8084C4.36177 13.2159 4.52275 13.6007 4.76114 13.9321C4.99952 14.2636 5.30874 14.5327 5.6643 14.718C6.01986 14.9034 6.41198 14.9999 6.80958 15H11.9296Z" stroke="#4B5A6B" stroke-width="1.25" stroke-linejoin="round"/>
<path d="M8.19126 10.0873C8.12419 10.3865 8.09047 10.6928 8.09078 11V11.6667M4.69494 8.502C4.49867 8.19964 4.36407 7.85853 4.29949 7.49979C4.2349 7.14105 4.24171 6.77232 4.31947 6.41643C4.39724 6.06054 4.54431 5.72507 4.75159 5.43079C4.95887 5.13651 5.22193 4.88968 5.5245 4.7056C5.82707 4.52152 6.16269 4.4041 6.51059 4.3606C6.85848 4.31711 7.21125 4.34848 7.54703 4.45276C7.88282 4.55704 8.19449 4.73202 8.46272 4.96685C8.73096 5.20169 8.95006 5.49138 9.10646 5.818M1.05078 7H2.33078M2.73782 2.75733L3.64278 3.7M6.81078 1V2.33333M10.8837 2.75733L9.97878 3.7" stroke="#4B5A6B" stroke-width="1.25" stroke-linecap="round" stroke-linejoin="round"/>
</g>
<defs>
<clipPath id="clip0_5440_129201">
<rect width="17" height="16" fill="white" transform="translate(0.0898438)"/>
</clipPath>
</defs>
</svg>