<svg width="26" height="26" viewBox="0 0 26 26" fill="none" xmlns="http://www.w3.org/2000/svg">
<g id="Surveillance Cctv 1">
<path id="Vector" d="M9.35417 14.918V18.1584C9.30882 18.8881 8.97671 19.5703 8.43029 20.056C7.88387 20.5418 7.1675 20.7917 6.4375 20.7513H2.0625" stroke="#4F4F4F" stroke-width="1.5" stroke-linecap="round" stroke-linejoin="round"/>
<path id="Vector_2" d="M2.0625 18.5625V22.2083" stroke="#4F4F4F" stroke-width="1.5" stroke-linecap="round" stroke-linejoin="round"/>
<path id="Vector_3" d="M15.9167 12H2.79167C2.59828 12 2.41281 11.9232 2.27607 11.7864C2.13932 11.6497 2.0625 11.4642 2.0625 11.2708V7.625C2.0625 6.46468 2.52344 5.35188 3.34391 4.53141C4.16438 3.71094 5.27718 3.25 6.4375 3.25H22.4792C22.8659 3.25 23.2369 3.40365 23.5104 3.67714C23.7839 3.95063 23.9375 4.32156 23.9375 4.70833V5.94792C23.9375 6.23008 23.8557 6.50619 23.702 6.74278C23.5482 6.97937 23.3291 7.16628 23.0713 7.28083L17.375 9.81347V10.5417C17.375 10.9284 17.2214 11.2994 16.9479 11.5729C16.6744 11.8464 16.3034 12 15.9167 12Z" stroke="#4F4F4F" stroke-width="1.5" stroke-linecap="round" stroke-linejoin="round"/>
<path id="Vector_4" d="M21.0234 8.19141V13.457C21.0234 13.8437 20.8698 14.2147 20.5963 14.4882C20.3228 14.7616 19.9519 14.9153 19.5651 14.9153H6.4401C5.66656 14.9153 4.92469 14.608 4.37771 14.061C3.83073 13.514 3.52344 12.7722 3.52344 11.9986" stroke="#4F4F4F" stroke-width="1.5" stroke-linecap="round" stroke-linejoin="round"/>
<path id="Vector_5" d="M23.9375 9.8125V12.7292" stroke="#4F4F4F" stroke-width="1.5" stroke-linecap="round" stroke-linejoin="round"/>
</g>
</svg>
