<svg width="26" height="26" viewBox="0 0 26 26" fill="none" xmlns="http://www.w3.org/2000/svg">
<g id="Conversation Chat 1">
<path id="Vector" d="M12.3102 19.7186C11.9462 19.7186 11.597 19.5739 11.3396 19.3165C11.0821 19.0591 10.9375 18.7099 10.9375 18.3458V11.4821C10.9375 11.118 11.0821 10.7689 11.3396 10.5114C11.597 10.254 11.9462 10.1094 12.3102 10.1094H21.9194C22.2835 10.1094 22.6327 10.254 22.8901 10.5114C23.1476 10.7689 23.2922 11.118 23.2922 11.4821V18.3458C23.2922 18.7099 23.1476 19.0591 22.8901 19.3165C22.6327 19.5739 22.2835 19.7186 21.9194 19.7186H20.5467V23.8368L16.4285 19.7186H12.3102Z" stroke="#4F4F4F" stroke-width="1.5" stroke-linecap="round" stroke-linejoin="round"/>
<path id="Vector_2" d="M8.1941 14.2319L5.44861 16.9774V12.8592H4.07587C3.71179 12.8592 3.36263 12.7146 3.10519 12.4571C2.84775 12.1997 2.70312 11.8505 2.70312 11.4865V4.62274C2.70312 4.25867 2.84775 3.90951 3.10519 3.65207C3.36263 3.39463 3.71179 3.25 4.07587 3.25H13.6851C14.0491 3.25 14.3983 3.39463 14.6557 3.65207C14.9132 3.90951 15.0578 4.25867 15.0578 4.62274V7.36823" stroke="#4F4F4F" stroke-width="1.5" stroke-linecap="round" stroke-linejoin="round"/>
</g>
</svg>
