<svg width="26" height="26" viewBox="0 0 26 26" fill="none" xmlns="http://www.w3.org/2000/svg">
<g id="Frame" clip-path="url(#clip0_5399_272591)">
<path id="Vector" d="M13.25 19.8555H15.7891C15.7891 19.8555 16.8047 19.8555 16.8047 20.8711V23.4102C16.8047 23.4102 16.8047 24.4258 15.7891 24.4258H13.25C13.25 24.4258 12.2344 24.4258 12.2344 23.4102V20.8711C12.2344 20.8711 12.2344 19.8555 13.25 19.8555Z" stroke="#4F4F4F" stroke-width="1.5" stroke-linecap="round" stroke-linejoin="round"/>
<path id="Vector_2" d="M17.0625 12.2383H19.6016C19.6016 12.2383 20.6172 12.2383 20.6172 13.2539V15.793C20.6172 15.793 20.6172 16.8086 19.6016 16.8086H17.0625C17.0625 16.8086 16.0469 16.8086 16.0469 15.793V13.2539C16.0469 13.2539 16.0469 12.2383 17.0625 12.2383Z" stroke="#4F4F4F" stroke-width="1.5" stroke-linecap="round" stroke-linejoin="round"/>
<path id="Vector_3" d="M20.875 19.8555H23.4141C23.4141 19.8555 24.4297 19.8555 24.4297 20.8711V23.4102C24.4297 23.4102 24.4297 24.4258 23.4141 24.4258H20.875C20.875 24.4258 19.8594 24.4258 19.8594 23.4102V20.8711C19.8594 20.8711 19.8594 19.8555 20.875 19.8555Z" stroke="#4F4F4F" stroke-width="1.5" stroke-linecap="round" stroke-linejoin="round"/>
<path id="Vector_4" d="M9.19531 21.3789H3.10156C2.69752 21.3789 2.31003 21.2184 2.02433 20.9327C1.73863 20.647 1.57813 20.2595 1.57812 19.8555V3.09766C1.57812 2.69362 1.73863 2.30612 2.02433 2.02042C2.31003 1.73472 2.69752 1.57422 3.10156 1.57422H13.8966C14.3004 1.5743 14.6876 1.73467 14.9732 2.02008L17.8901 4.93695C18.1755 5.22255 18.3359 5.60976 18.3359 6.01352V9.19141" stroke="#4F4F4F" stroke-width="1.5" stroke-linecap="round" stroke-linejoin="round"/>
</g>
<defs>
<clipPath id="clip0_5399_272591">
<rect width="26" height="26" fill="white"/>
</clipPath>
</defs>
</svg>
