<svg width="26" height="26" viewBox="0 0 26 26" fill="none" xmlns="http://www.w3.org/2000/svg">
<g id="Police Rotating Light 1">
<path id="Vector" d="M19.4983 19.5H6.49826C5.73208 19.5 4.99728 19.8044 4.45551 20.3461C3.91374 20.8879 3.60938 21.6227 3.60938 22.3889C3.60938 22.772 3.76156 23.1394 4.03244 23.4103C4.30333 23.6812 4.67073 23.8333 5.05382 23.8333H20.9427C21.3258 23.8333 21.6932 23.6812 21.9641 23.4103C22.235 23.1394 22.3872 22.772 22.3872 22.3889C22.3872 21.6227 22.0828 20.8879 21.541 20.3461C20.9992 19.8044 20.2644 19.5 19.4983 19.5Z" stroke="#4F4F4F" stroke-width="1.5" stroke-linecap="round" stroke-linejoin="round"/>
<path id="Vector_2" d="M15.47 6.5H10.53C9.81896 6.49993 9.13286 6.76208 8.60304 7.23629C8.07322 7.7105 7.7369 8.36345 7.65844 9.07015L6.5 19.5H19.5L18.3444 9.07015C18.2659 8.36295 17.9292 7.7096 17.3988 7.23533C16.8683 6.76105 16.1815 6.49922 15.47 6.5Z" stroke="#4F4F4F" stroke-width="1.5" stroke-linecap="round" stroke-linejoin="round"/>
<path id="Vector_3" d="M13 3.61241V2.16797" stroke="#4F4F4F" stroke-width="1.5" stroke-linecap="round" stroke-linejoin="round"/>
<path id="Vector_4" d="M3.60851 10.832H2.16406" stroke="#4F4F4F" stroke-width="1.5" stroke-linecap="round" stroke-linejoin="round"/>
<path id="Vector_5" d="M3.60938 3.60938L5.05382 5.05382" stroke="#4F4F4F" stroke-width="1.5" stroke-linecap="round" stroke-linejoin="round"/>
<path id="Vector_6" d="M22.3906 10.832H23.8351" stroke="#4F4F4F" stroke-width="1.5" stroke-linecap="round" stroke-linejoin="round"/>
<path id="Vector_7" d="M22.3898 3.60938L20.9453 5.05382" stroke="#4F4F4F" stroke-width="1.5" stroke-linecap="round" stroke-linejoin="round"/>
</g>
</svg>
