<svg width="26" height="26" viewBox="0 0 26 26" fill="none" xmlns="http://www.w3.org/2000/svg">
<g id="Frame">
<path id="Vector" d="M17.3782 3.69486C17.0151 3.54963 16.61 3.54963 16.2468 3.69486L9.76103 6.28979C9.39787 6.43502 8.99277 6.43502 8.62962 6.28979L2.62321 3.88682C2.50732 3.84037 2.38179 3.82312 2.25767 3.83659C2.13354 3.85006 2.01463 3.89383 1.9114 3.96406C1.80817 4.03428 1.72379 4.12881 1.66567 4.23931C1.60756 4.34981 1.5775 4.4729 1.57813 4.59775V19.1953C1.57808 19.4999 1.6693 19.7974 1.84002 20.0496C2.01073 20.3018 2.25311 20.497 2.53587 20.6101L8.62962 23.0476C8.99277 23.1928 9.39787 23.1928 9.76103 23.0476L16.2468 20.4527C16.61 20.3074 17.0151 20.3074 17.3782 20.4527L23.3846 22.8516C23.5005 22.898 23.626 22.9153 23.7502 22.9018C23.8743 22.8883 23.9932 22.8446 24.0964 22.7743C24.1997 22.7041 24.284 22.6096 24.3422 22.4991C24.4003 22.3886 24.4303 22.2655 24.4297 22.1406V7.54713C24.4297 7.2426 24.3385 6.94504 24.1678 6.69286C23.9971 6.44068 23.7547 6.24545 23.472 6.13236L17.3782 3.69486Z" stroke="#4F4F4F" stroke-width="1.5" stroke-linecap="round" stroke-linejoin="round"/>
<path id="Vector_2" d="M9.1875 6.39844V23.1562" stroke="#4F4F4F" stroke-width="1.5" stroke-linecap="round" stroke-linejoin="round"/>
<path id="Vector_3" d="M16.8125 3.58594V20.3438" stroke="#4F4F4F" stroke-width="1.5" stroke-linecap="round" stroke-linejoin="round"/>
</g>
</svg>
