<svg width="10" height="10" viewBox="0 0 10 10" fill="none" xmlns="http://www.w3.org/2000/svg">
<g id="Frame" clip-path="url(#clip0_5893_67848)">
<path id="Vector" d="M0.581699 8.56762C0.469361 8.67996 0.40625 8.83232 0.40625 8.99119C0.40625 9.15006 0.469361 9.30242 0.581699 9.41476C0.694037 9.5271 0.8464 9.59021 1.00527 9.59021C1.16414 9.59021 1.3165 9.5271 1.42884 9.41476L8.7074 2.13581L7.86065 1.28906L0.581699 8.56762Z" stroke="#903470" stroke-width="0.8" stroke-linecap="round" stroke-linejoin="round"/>
<path id="Vector_2" d="M3.32031 2.39453L5.03815 4.11237" stroke="#903470" stroke-width="0.8" stroke-linecap="round" stroke-linejoin="round"/>
<path id="Vector_3" d="M5.88971 3.26471L4.17188 1.54688" stroke="#903470" stroke-width="0.8" stroke-linecap="round" stroke-linejoin="round"/>
<path id="Vector_4" d="M2.63685 1.43231C2.52777 1.54525 2.46741 1.69652 2.46877 1.85353C2.47014 2.01054 2.53312 2.16074 2.64414 2.27176C2.75517 2.38279 2.90536 2.44577 3.06237 2.44713C3.21939 2.4485 3.37065 2.38814 3.48359 2.27906L4.04849 1.71456C4.16082 1.60201 4.22385 1.44945 4.2237 1.29043C4.22355 1.13141 4.16024 0.97896 4.04769 0.866622C3.93514 0.754283 3.78257 0.691257 3.62355 0.691407C3.46453 0.691556 3.31208 0.75487 3.19975 0.86742L2.63685 1.43231Z" stroke="#903470" stroke-width="0.8" stroke-linecap="round" stroke-linejoin="round"/>
<path id="Vector_5" d="M8.56813 1.9932C8.62373 2.04882 8.68974 2.09295 8.76239 2.12306C8.83504 2.15318 8.91291 2.16868 8.99156 2.1687C9.0702 2.16872 9.14808 2.15325 9.22075 2.12317C9.29342 2.09309 9.35945 2.04899 9.41507 1.99339C9.47069 1.9378 9.51482 1.87179 9.54494 1.79914C9.57505 1.72648 9.59056 1.64861 9.59058 1.56996C9.5906 1.49132 9.57512 1.41344 9.54505 1.34077C9.51497 1.26811 9.47087 1.20208 9.41527 1.14645L8.85038 0.581558C8.73804 0.469273 8.5857 0.406213 8.42686 0.40625C8.26803 0.406287 8.11572 0.469419 8.00343 0.581757C7.89115 0.694095 7.82809 0.846437 7.82813 1.00527C7.82816 1.1641 7.89129 1.31641 8.00363 1.4287L8.56813 1.9932Z" stroke="#903470" stroke-width="0.8" stroke-linecap="round" stroke-linejoin="round"/>
</g>
<defs>
<clipPath id="clip0_5893_67848">
<rect width="10" height="10" fill="white"/>
</clipPath>
</defs>
</svg>
