<svg width="10" height="10" viewBox="0 0 10 10" fill="none" xmlns="http://www.w3.org/2000/svg">
<g id="Frame" clip-path="url(#clip0_5893_67863)">
<path id="Vector" d="M2.1875 1.51165C2.28475 1.34178 2.4166 1.19424 2.57451 1.07859C2.73243 0.962935 2.91288 0.88175 3.10417 0.840293C3.29547 0.798836 3.49334 0.798034 3.68497 0.837938C3.87659 0.877841 4.0577 0.957561 4.21654 1.07193C4.37539 1.1863 4.50843 1.33277 4.60706 1.50184C4.70568 1.67092 4.76768 1.85883 4.78904 2.05339C4.81039 2.24796 4.79063 2.44484 4.73104 2.63129C4.67144 2.81773 4.57334 2.98957 4.44309 3.13568" stroke="#5922A1" stroke-width="0.8" stroke-linecap="round" stroke-linejoin="round"/>
<path id="Vector_2" d="M1.60938 2.00391V3.60078L3.00664 4.19961L3.60547 4V2.40312L3.00664 2.60273L1.60938 2.00391Z" stroke="#5922A1" stroke-width="0.8" stroke-linecap="round" stroke-linejoin="round"/>
<path id="Vector_3" d="M3.99922 5.19727L3.17443 5.52702C3.12017 5.54875 3.06179 5.55829 3.00343 5.55498C2.94507 5.55167 2.88815 5.53558 2.83669 5.50786L0.40625 4.19922V7.9918C0.406288 8.06385 0.425828 8.13456 0.462798 8.19641C0.499769 8.25826 0.55279 8.30895 0.616239 8.34311L2.83669 9.54077C2.88815 9.56849 2.94507 9.58458 3.00343 9.58789C3.06179 9.5912 3.12017 9.58165 3.17443 9.55993L3.99922 9.22937V5.19727Z" stroke="#5922A1" stroke-width="0.8" stroke-linecap="round" stroke-linejoin="round"/>
<path id="Vector_4" d="M6.98438 1.11322C7.08162 0.943347 7.21348 0.795806 7.37139 0.680152C7.5293 0.564498 7.70975 0.483312 7.90105 0.441855C8.09235 0.400399 8.29022 0.399597 8.48184 0.4395C8.67347 0.479404 8.85457 0.559123 9.01342 0.673493C9.17226 0.787862 9.30531 0.93433 9.40393 1.1034C9.50255 1.27248 9.56455 1.46039 9.58591 1.65496C9.60727 1.84952 9.58751 2.04641 9.52791 2.23285C9.46832 2.41929 9.37021 2.59113 9.23996 2.73724" stroke="#5922A1" stroke-width="0.8" stroke-linecap="round" stroke-linejoin="round"/>
<path id="Vector_5" d="M6.39844 1.60547V3.20234L7.7957 3.80117L8.39453 3.60156V2.00469L7.7957 2.2043L6.39844 1.60547Z" stroke="#5922A1" stroke-width="0.8" stroke-linecap="round" stroke-linejoin="round"/>
<path id="Vector_6" d="M9.19453 4.79883L8.36975 5.12858C8.31548 5.15031 8.2571 5.15985 8.19875 5.15654C8.14039 5.15323 8.08347 5.13715 8.03201 5.10942L5.60156 3.80078V7.59336C5.6016 7.66542 5.62114 7.73612 5.65811 7.79797C5.69508 7.85982 5.7481 7.91052 5.81155 7.94467L8.03201 9.14033C8.08347 9.16806 8.14039 9.18414 8.19875 9.18745C8.2571 9.19077 8.31548 9.18122 8.36975 9.15949L9.19453 8.83094V4.79883Z" stroke="#5922A1" stroke-width="0.8" stroke-linecap="round" stroke-linejoin="round"/>
</g>
<defs>
<clipPath id="clip0_5893_67863">
<rect width="10" height="10" fill="white"/>
</clipPath>
</defs>
</svg>
