<svg width="16" height="16" viewBox="0 0 16 16" fill="none" xmlns="http://www.w3.org/2000/svg">
<g id="Frame">
<path id="Vector" d="M11.4922 12.7899H14.0689C14.4077 12.7899 14.7327 12.6553 14.9722 12.4158C15.2118 12.1762 15.3464 11.8513 15.3464 11.5124V6.1578C15.3465 5.86543 15.2462 5.58188 15.0624 5.3545C14.8786 5.12712 14.6224 4.96966 14.3365 4.9084L11.7011 4.34375" stroke="#4F4F4F" stroke-linecap="round" stroke-linejoin="round"/>
<path id="Vector_2" d="M1.295 4.48828H3.21125C3.21125 4.48828 3.85 4.48828 3.85 5.12703V12.792C3.85 12.792 3.85 13.4308 3.21125 13.4308H1.295C1.295 13.4308 0.65625 13.4308 0.65625 12.792V5.12703C0.65625 5.12703 0.65625 4.48828 1.295 4.48828Z" stroke="#4F4F4F" stroke-linecap="round" stroke-linejoin="round"/>
<path id="Vector_3" d="M6.84858 4.375L3.85156 5.12425" stroke="#4F4F4F" stroke-linecap="round" stroke-linejoin="round"/>
<path id="Vector_4" d="M12.294 6.42581L11.4566 3.49714C11.3804 3.23016 11.2193 2.99528 10.9976 2.82804C10.776 2.66081 10.5059 2.57034 10.2283 2.57031H8.32353C8.04589 2.57034 7.77581 2.66081 7.55417 2.82804C7.33254 2.99528 7.17143 3.23016 7.09521 3.49714L6.25781 6.42581" stroke="#4F4F4F" stroke-linecap="round" stroke-linejoin="round"/>
<path id="Vector_5" d="M5.125 9.27688C5.125 10.378 5.56243 11.4341 6.34106 12.2127C7.11968 12.9913 8.17573 13.4287 9.27688 13.4287C10.378 13.4287 11.4341 12.9913 12.2127 12.2127C12.9913 11.4341 13.4287 10.378 13.4287 9.27688C13.4287 8.73164 13.3214 8.19175 13.1127 7.68802C12.9041 7.18429 12.5982 6.72659 12.2127 6.34106C11.8272 5.95552 11.3695 5.64969 10.8657 5.44104C10.362 5.23239 9.82211 5.125 9.27688 5.125C8.73164 5.125 8.19175 5.23239 7.68802 5.44104C7.18429 5.64969 6.72659 5.95552 6.34106 6.34106C5.95552 6.72659 5.64969 7.18429 5.44104 7.68802C5.23239 8.19175 5.125 8.73164 5.125 9.27688Z" stroke="#4F4F4F" stroke-linecap="round" stroke-linejoin="round"/>
<path id="Vector_6" d="M3.85156 12.7891H7.06703" stroke="#4F4F4F" stroke-linecap="round" stroke-linejoin="round"/>
</g>
</svg>
