<svg width="10" height="10" viewBox="0 0 10 10" fill="none" xmlns="http://www.w3.org/2000/svg">
<g id="Frame">
<path id="Vector" d="M6.41367 3.30469C6.41367 4.80175 4.61719 6.17426 4.61719 7.09725H8.01055C9.1068 7.09725 9.48287 5.73991 9.57948 4.4688C9.59525 4.26384 9.53153 4.06063 9.40151 3.90136C9.27152 3.74208 9.08524 3.63893 8.88124 3.61328L6.41367 3.30469Z" stroke="#2A763F" stroke-width="0.8" stroke-linecap="round" stroke-linejoin="round"/>
<path id="Vector_2" d="M6.4096 3.30319C6.4096 3.30319 5.66904 2.16901 3.75 1.70312" stroke="#2A763F" stroke-width="0.8" stroke-linecap="round" stroke-linejoin="round"/>
<path id="Vector_3" d="M4.91078 6.2983C3.83733 6.36937 2.76394 6.15882 1.79688 5.6875" stroke="#2A763F" stroke-width="0.8" stroke-linecap="round" stroke-linejoin="round"/>
<path id="Vector_4" d="M0.421875 8.29531L1.04865 7.91925C1.96189 7.42302 2.97644 7.14201 4.01484 7.09766H5.01928" stroke="#2A763F" stroke-width="0.8" stroke-linecap="round" stroke-linejoin="round"/>
<path id="Vector_5" d="M4.99824 3.8207C4.94311 3.8207 4.89844 3.77602 4.89844 3.7209C4.89844 3.66578 4.94311 3.62109 4.99824 3.62109" stroke="#2A763F" stroke-width="0.446667"/>
<path id="Vector_6" d="M5 3.8207C5.05513 3.8207 5.0998 3.77602 5.0998 3.7209C5.0998 3.66578 5.05513 3.62109 5 3.62109" stroke="#2A763F" stroke-width="0.8"/>
</g>
</svg>
