<svg width="42" height="42" viewBox="0 0 42 42" fill="none" xmlns="http://www.w3.org/2000/svg">
<g id="Fire-Warning_256x256 1">
<g id="layer26">
<path id="path4271" d="M7.2681 31.4937C20.2704 12.2458 20.9931 11.186 21.0656 11.2611C21.1522 11.3509 36.0139 33.3647 36.0139 33.4032C25.4299 33.4421 17.3635 33.4288 5.96094 33.4288L7.2681 31.4937Z" fill="#FCFCFC" stroke="#130000" stroke-width="0.075" stroke-linecap="round" stroke-linejoin="round"/>
</g>
<g id="layer2">
<path id="path4249-0" d="M1.48644 36.7416C0.185912 36.9207 0.175508 34.9694 0.884069 34.3783L20.0004 6.4461C20.6315 5.79804 21.3678 5.7954 22.0561 6.3431L41.212 34.4038C41.4618 34.9109 42.2262 36.225 40.7168 36.7606L1.48644 36.7416ZM36.244 33.5158L21.0096 10.9508L5.75739 33.5224L36.244 33.5158Z" fill="#FA0000" stroke="black" stroke-width="0.187437"/>
</g>
<g id="layer16">
<path id="path4469" d="M19.7419 33.2165C19.531 33.2034 19.411 33.1818 19.3266 33.1414C19.2613 33.1103 19.1503 33.0757 19.0798 33.0649C18.9987 33.0524 18.9195 33.0157 18.8637 32.965C18.8153 32.921 18.7626 32.885 18.7466 32.885C18.6856 32.885 18.2993 32.5684 17.4848 31.8507C17.2937 31.6823 17.0271 31.4568 16.7943 31.2666C16.566 31.0801 16.0359 30.5872 15.869 30.4063C15.7799 30.3097 15.6701 30.1938 15.625 30.1487C15.5799 30.1036 15.5285 30.0414 15.5107 30.0105C15.4697 29.9392 15.2968 29.7225 15.2015 29.6229C15.1613 29.581 15.1284 29.5289 15.1284 29.5073C15.1284 29.4857 15.1037 29.4517 15.0735 29.4319C15.0433 29.4121 14.9947 29.3524 14.9656 29.2993C14.9364 29.2462 14.8746 29.1594 14.8283 29.1063C14.782 29.0532 14.7178 28.9787 14.6856 28.9408C14.625 28.8693 14.4434 28.6586 14.3156 28.5116C14.2753 28.4651 14.2329 28.3906 14.2213 28.3461C14.2097 28.3015 14.1687 28.2063 14.1301 28.1345C14.0915 28.0627 14.0459 27.9099 14.0287 27.7949C14.0115 27.68 13.9722 27.5313 13.9415 27.4646C13.9107 27.3979 13.8705 27.2415 13.8522 27.117C13.8339 26.9925 13.7883 26.8152 13.751 26.7228C13.7136 26.6305 13.6731 26.468 13.661 26.3619C13.6488 26.2557 13.6128 26.1067 13.5809 26.0309C13.549 25.955 13.5039 25.7797 13.4806 25.6412C13.4574 25.5028 13.4126 25.3336 13.3811 25.2653C13.3496 25.1969 13.3079 25.0434 13.2884 24.924C13.269 24.8047 13.2271 24.6598 13.1953 24.6019C13.0952 24.4195 13.0494 23.8376 13.1201 23.645C13.1478 23.5695 13.1737 23.5466 13.2391 23.5396C13.3065 23.5324 13.3499 23.5567 13.4617 23.6642C13.538 23.7376 13.6539 23.8642 13.7192 23.9454C13.7845 24.0267 13.8606 24.1137 13.8883 24.1388C13.9404 24.1859 14.0339 24.3014 14.1621 24.4769C14.2026 24.5325 14.2681 24.6116 14.3076 24.6527C14.383 24.7312 14.4852 24.8439 14.6071 24.9828C14.6471 25.0283 14.7182 25.1089 14.7651 25.162C14.812 25.2151 14.8795 25.2977 14.9152 25.3455C15.0452 25.5199 15.4993 25.8792 15.5898 25.8792C15.6077 25.8792 15.6538 25.9102 15.6922 25.9481C15.7422 25.9976 15.7929 26.0171 15.8717 26.0171C16.0159 26.0171 16.063 25.96 16.063 25.7853C16.063 25.6761 16.0455 25.6232 15.9847 25.5482C15.9416 25.4951 15.8973 25.4119 15.8862 25.3633C15.8751 25.3147 15.8388 25.2427 15.8054 25.2033C15.7721 25.1638 15.7267 25.0758 15.7046 25.0075C15.6825 24.9393 15.6378 24.8487 15.6053 24.8063C15.5727 24.7638 15.5332 24.6755 15.5174 24.6102C15.5016 24.5448 15.4608 24.4562 15.4267 24.4134C15.3921 24.3699 15.3449 24.2382 15.3198 24.1154C15.2951 23.9943 15.2547 23.8421 15.2301 23.7772C15.2055 23.7122 15.1719 23.5287 15.1554 23.3693C15.139 23.21 15.1063 22.9542 15.0826 22.8008C15.0489 22.5822 15.0461 22.4543 15.0694 22.2078C15.0858 22.035 15.1188 21.6764 15.1428 21.4109C15.201 20.7682 15.2462 20.6356 15.4647 20.4669C15.6945 20.2895 15.9352 20.3047 16.007 20.501C16.0263 20.5539 16.0849 20.771 16.1371 20.9834C16.1893 21.1958 16.2503 21.4006 16.2727 21.4385C16.3289 21.5337 16.3647 21.6015 16.4182 21.7143C16.5268 21.9431 16.8967 22.3653 17.4126 22.8491C17.8151 23.2268 17.8544 23.256 18.0161 23.2987C18.2483 23.3601 18.378 23.324 18.4433 23.18C18.5071 23.0391 18.4768 22.4728 18.3934 22.2473C18.3607 22.159 18.32 21.9941 18.3029 21.881C18.2839 21.7553 18.2433 21.6301 18.1984 21.5589C18.158 21.4949 18.125 21.4198 18.1249 21.3922C18.1249 21.3646 18.0781 21.2558 18.0211 21.1504C17.964 21.0451 17.9173 20.942 17.9173 20.9212C17.9173 20.9004 17.8838 20.8175 17.8427 20.7368C17.7485 20.5517 17.7041 20.1578 17.7392 19.8184C17.7594 19.6228 17.7846 19.5399 17.8712 19.3836C17.93 19.2774 18.0079 19.1572 18.0442 19.1164C18.0805 19.0755 18.1502 18.9913 18.1992 18.9291C18.3121 18.7856 18.4856 18.5803 18.5843 18.4734C18.6263 18.4279 18.7078 18.3348 18.7655 18.2666C18.8232 18.1983 18.9062 18.1028 18.9501 18.0544C18.994 18.0059 19.0766 17.9022 19.1337 17.8238C19.1909 17.7454 19.2776 17.6402 19.3266 17.5901C19.4818 17.4312 19.707 17.1337 19.7748 16.998C19.8013 16.9451 19.8548 16.8665 19.8937 16.8235C19.9326 16.7805 19.9645 16.7236 19.9645 16.697C19.9645 16.6704 20.0031 16.5938 20.0503 16.5267C20.0975 16.4596 20.1458 16.3613 20.1577 16.3082C20.1696 16.2551 20.2094 16.1621 20.2462 16.1014C20.283 16.0407 20.3289 15.9299 20.3482 15.8551C20.3676 15.7803 20.4077 15.6872 20.4375 15.6482C20.4673 15.6092 20.5124 15.5312 20.5377 15.4749C20.6134 15.306 20.8213 15.293 20.935 15.4502C20.9965 15.5353 21.001 15.5652 20.9856 15.7812C20.9762 15.9118 20.9439 16.1676 20.9136 16.3496C20.8834 16.5317 20.8507 16.7369 20.8409 16.8056C20.8312 16.8744 20.7968 16.9709 20.7646 17.0201C20.7324 17.0694 20.6921 17.1682 20.675 17.2399C20.658 17.3115 20.6135 17.4136 20.5762 17.4667C20.539 17.5198 20.4924 17.6233 20.4727 17.6967C20.4531 17.7702 20.4112 17.8633 20.3798 17.9036C20.3483 17.944 20.3084 18.037 20.2912 18.1103C20.2739 18.1837 20.2316 18.2951 20.1972 18.3578C20.1555 18.4338 20.1165 18.6011 20.0806 18.8588C20.0305 19.2179 20.0299 19.2646 20.0728 19.5078C20.1064 19.698 20.1425 19.8044 20.2049 19.8963C20.2522 19.9659 20.2908 20.0363 20.2908 20.0528C20.2908 20.0693 20.3233 20.1187 20.3631 20.1626C20.4028 20.2065 20.4568 20.2912 20.4831 20.3509C20.5154 20.4242 20.5742 20.4849 20.6645 20.5382L20.7979 20.617L20.9503 20.5658C21.0746 20.5239 21.1372 20.4764 21.2899 20.3076C21.5824 19.9844 21.615 19.9419 21.6524 19.8352C21.6717 19.7801 21.7127 19.7139 21.7435 19.6879C21.7744 19.662 21.8085 19.5891 21.8193 19.526C21.8301 19.4629 21.8735 19.343 21.9157 19.2595C21.9868 19.1188 21.9933 19.0729 22.0055 18.6251C22.0195 18.1136 22.0417 18.0222 22.1677 17.959C22.2042 17.9407 22.2808 17.9283 22.338 17.9316C22.4577 17.9384 22.6003 18.0678 22.6953 18.256C22.7268 18.3185 22.773 18.3853 22.7978 18.4045C22.8227 18.4237 22.8704 18.4905 22.9039 18.5529C23.0214 18.7723 23.1026 18.8993 23.1798 18.9846C23.2226 19.0319 23.2577 19.0874 23.2577 19.1078C23.2577 19.1283 23.291 19.1817 23.3317 19.2267C23.3724 19.2717 23.4482 19.3812 23.5002 19.4702C23.5929 19.6286 23.595 19.6405 23.6073 20.0635C23.6146 20.316 23.6066 20.5449 23.5884 20.6151C23.5351 20.8193 23.4048 21.1388 23.3436 21.2158C23.3115 21.2562 23.271 21.3751 23.2533 21.481C23.2356 21.5866 23.1965 21.7313 23.1663 21.8026C23.1361 21.8739 23.0969 22.0414 23.0792 22.1749C23.0616 22.3084 23.0211 22.4965 22.9892 22.5929C22.9118 22.8273 22.9159 22.8996 23.0178 23.1015C23.1082 23.2804 23.2275 23.4056 23.3371 23.4363C23.4159 23.4584 23.5788 23.3978 23.6554 23.3179C23.6865 23.2854 23.7231 23.2589 23.7368 23.2589C23.7764 23.2589 24.3252 22.7318 24.4021 22.6199C24.4404 22.5643 24.4859 22.5107 24.5031 22.5008C24.5204 22.4908 24.5667 22.4238 24.6059 22.3519C24.6451 22.28 24.6974 22.2055 24.7221 22.1865C24.7468 22.1674 24.7758 22.1123 24.7865 22.0641C24.7973 22.0158 24.8394 21.9306 24.8802 21.8747C24.9209 21.8187 24.9669 21.7207 24.9824 21.6568C24.9978 21.5928 25.0364 21.5066 25.0682 21.4651C25.1 21.4236 25.141 21.3231 25.1593 21.2417C25.1776 21.1603 25.2186 21.0539 25.2504 21.0052C25.2869 20.9492 25.3198 20.8218 25.3397 20.6592C25.3684 20.424 25.3799 20.3929 25.4719 20.2995C25.5273 20.2433 25.5865 20.1973 25.6034 20.1973C25.6203 20.1973 25.6825 20.2409 25.7415 20.2943C25.834 20.3778 25.8501 20.4112 25.8578 20.5356C25.8626 20.615 25.8894 20.9768 25.9172 21.3395C25.961 21.9108 25.9629 22.0732 25.9314 22.5531C25.9115 22.8579 25.8839 23.3842 25.8702 23.7227C25.8467 24.3021 25.8409 24.3461 25.7709 24.4714C25.7301 24.5447 25.6873 24.6462 25.676 24.6971C25.6646 24.748 25.62 24.8381 25.5768 24.8972C25.5141 24.9832 25.4962 25.0444 25.4876 25.204C25.4749 25.4363 25.496 25.4834 25.6602 25.5891L25.7817 25.6674L25.8628 25.6117C25.9074 25.581 25.9716 25.5478 26.0056 25.5378C26.086 25.514 26.5964 25.0485 26.7295 24.8776C26.7863 24.8046 26.8728 24.7033 26.9218 24.6524C27.0638 24.5049 27.2809 24.2214 27.38 24.0538C27.4131 23.9979 27.4552 23.9436 27.4736 23.933C27.4919 23.9224 27.5374 23.8497 27.5747 23.7714C27.6119 23.6931 27.664 23.6124 27.6903 23.5921C27.7167 23.5718 27.7467 23.5059 27.757 23.4458C27.7674 23.3857 27.8078 23.3012 27.8469 23.258C27.8895 23.2109 27.9304 23.1151 27.9488 23.0192C27.9912 22.798 28.143 22.5643 28.2654 22.5316C28.3953 22.497 28.4361 22.5364 28.515 22.7725C28.5707 22.9392 28.5793 23.0199 28.5714 23.3003C28.562 23.6337 28.5628 23.7997 28.5751 24.0657C28.5788 24.1453 28.5584 24.3718 28.5299 24.569C28.5013 24.7663 28.4671 25.1758 28.4538 25.4792C28.4319 25.9788 28.4225 26.0465 28.3545 26.1964C28.3132 26.2874 28.2701 26.43 28.2588 26.5133C28.2474 26.5965 28.2135 26.702 28.1834 26.7477C28.1532 26.7934 28.112 26.9114 28.0917 27.01C28.0715 27.1086 28.0169 27.2562 27.9705 27.338C27.924 27.4198 27.886 27.5074 27.886 27.5326C27.886 27.5579 27.853 27.6202 27.8126 27.6711C27.7722 27.722 27.7235 27.8082 27.7044 27.8626C27.6854 27.9171 27.6383 27.9967 27.5999 28.0396C27.5614 28.0825 27.53 28.1397 27.53 28.1667C27.53 28.1938 27.495 28.2639 27.4523 28.3224C27.4095 28.381 27.3558 28.4877 27.3328 28.5595C27.3099 28.6314 27.2774 28.6981 27.2606 28.7077C27.2439 28.7173 27.199 28.7907 27.1609 28.8708C27.1228 28.9509 27.0756 29.0256 27.0562 29.0368C27.0367 29.048 26.9956 29.1117 26.9649 29.1783C26.9342 29.2449 26.895 29.2993 26.8779 29.2993C26.8607 29.2993 26.8235 29.3459 26.7953 29.4028C26.7399 29.5143 26.2571 30.0517 26.0705 30.2095C25.8496 30.3964 24.7508 31.4196 24.3054 31.8533C23.2169 32.9132 23.0663 33.0525 22.9925 33.0679C22.9507 33.0768 22.8297 33.108 22.7237 33.1374C22.6021 33.1712 22.3664 33.2004 22.0858 33.2165C21.591 33.2451 20.2013 33.2451 19.7419 33.2165Z" fill="black"/>
</g>
</g>
</svg>
