<svg width="10" height="10" viewBox="0 0 10 10" fill="none" xmlns="http://www.w3.org/2000/svg">
<g id="Light" clip-path="url(#clip0_5893_67924)">
<path id="Vector" d="M6.79609 5.39727C6.79609 5.34433 6.77506 5.29355 6.73763 5.25612C6.7002 5.21869 6.64942 5.19766 6.59648 5.19766H5.59844V4.19961C5.59844 4.14667 5.57741 4.0959 5.53997 4.05846C5.50254 4.02103 5.45177 4 5.39883 4H4.60039C4.54745 4 4.49668 4.02103 4.45925 4.05846C4.42181 4.0959 4.40078 4.14667 4.40078 4.19961V5.19766H3.40273C3.34979 5.19766 3.29902 5.21869 3.26159 5.25612C3.22416 5.29355 3.20312 5.34433 3.20312 5.39727V6.1957C3.20312 6.24864 3.22416 6.29941 3.26159 6.33685C3.29902 6.37428 3.34979 6.39531 3.40273 6.39531H4.40078V7.39336C4.40078 7.4463 4.42181 7.49707 4.45925 7.5345C4.49668 7.57194 4.54745 7.59297 4.60039 7.59297H5.39883C5.45177 7.59297 5.50254 7.57194 5.53997 7.5345C5.57741 7.49707 5.59844 7.4463 5.59844 7.39336V6.39531H6.59648C6.64942 6.39531 6.7002 6.37428 6.73763 6.33685C6.77506 6.29941 6.79609 6.24864 6.79609 6.1957V5.39727Z" stroke="#DA309F" stroke-width="0.8" stroke-linecap="round" stroke-linejoin="round"/>
<path id="Vector_2" d="M1.20469 2.40234H8.78984C8.78984 2.40234 9.58828 2.40234 9.58828 3.20078V7.99141C9.58828 7.99141 9.58828 8.78984 8.78984 8.78984H1.20469C1.20469 8.78984 0.40625 8.78984 0.40625 7.99141V3.20078C0.40625 3.20078 0.40625 2.40234 1.20469 2.40234Z" stroke="#DA309F" stroke-width="0.8" stroke-linecap="round" stroke-linejoin="round"/>
<path id="Vector_3" d="M3.60156 2.40469V1.80586C3.60156 1.64704 3.66465 1.49473 3.77696 1.38242C3.88926 1.27012 4.04157 1.20703 4.20039 1.20703H5.79727C5.95608 1.20703 6.1084 1.27012 6.2207 1.38242C6.333 1.49473 6.39609 1.64704 6.39609 1.80586V2.40469" stroke="#DA309F" stroke-width="0.8" stroke-linecap="round" stroke-linejoin="round"/>
</g>
<defs>
<clipPath id="clip0_5893_67924">
<rect width="10" height="10" fill="white"/>
</clipPath>
</defs>
</svg>
