<svg width="16" height="16" viewBox="0 0 16 16" fill="none" xmlns="http://www.w3.org/2000/svg">
<g id="Group">
<path id="Vector" d="M8.9375 1.00001C9.09297 0.980063 9.24951 0.969627 9.40625 0.968762C10.1528 0.966775 10.8778 1.21944 11.4614 1.68505C12.0449 2.15066 12.4523 2.80136 12.6162 3.52973C12.7801 4.25809 12.6907 5.02057 12.3628 5.69127C12.0348 6.36197 11.488 6.90079 10.8125 7.21876" stroke="#4F4F4F" stroke-linecap="round" stroke-linejoin="round"/>
<path id="Vector_2" d="M3.78125 15.0313C3.78125 13.5394 4.37388 12.1087 5.42877 11.0538C6.48367 9.99888 7.91441 9.40625 9.40625 9.40625C10.8981 9.40625 12.3288 9.99888 13.3837 11.0538C14.4386 12.1087 15.0313 13.5394 15.0313 15.0313" stroke="#4F4F4F" stroke-linecap="round" stroke-linejoin="round"/>
<path id="Vector_3" d="M6.59375 2.84375L6.125 1.90625H3.3125L2.84375 2.84375H1.90625C1.65761 2.84375 1.41915 2.94252 1.24334 3.11834C1.06752 3.29415 0.96875 3.53261 0.96875 3.78125V6.59375C0.96875 6.84239 1.06752 7.08085 1.24334 7.25666C1.41915 7.43248 1.65761 7.53125 1.90625 7.53125H7.53125C7.77989 7.53125 8.01835 7.43248 8.19416 7.25666C8.36998 7.08085 8.46875 6.84239 8.46875 6.59375V3.78125C8.46875 3.53261 8.36998 3.29415 8.19416 3.11834C8.01835 2.94252 7.77989 2.84375 7.53125 2.84375H6.59375Z" stroke="#4F4F4F" stroke-linecap="round" stroke-linejoin="round"/>
<path id="Vector_4" d="M3.54688 4.95234C3.54687 5.10665 3.57727 5.25944 3.63632 5.402C3.69537 5.54455 3.78192 5.67409 3.89102 5.78319C4.00013 5.8923 4.12966 5.97885 4.27222 6.0379C4.41478 6.09695 4.56757 6.12734 4.72187 6.12734C4.87618 6.12734 5.02897 6.09695 5.17153 6.0379C5.31409 5.97885 5.44362 5.8923 5.55273 5.78319C5.66183 5.67409 5.74838 5.54455 5.80743 5.402C5.86648 5.25944 5.89687 5.10665 5.89687 4.95234C5.89687 4.79804 5.86648 4.64525 5.80743 4.50269C5.74838 4.36013 5.66183 4.2306 5.55273 4.12149C5.44362 4.01238 5.31409 3.92583 5.17153 3.86679C5.02897 3.80774 4.87618 3.77734 4.72187 3.77734C4.56757 3.77734 4.41478 3.80774 4.27222 3.86679C4.12966 3.92583 4.00013 4.01238 3.89102 4.12149C3.78192 4.2306 3.69537 4.36013 3.63632 4.50269C3.57727 4.64525 3.54687 4.79804 3.54688 4.95234Z" stroke="#4F4F4F" stroke-linecap="round" stroke-linejoin="round"/>
</g>
</svg>
