<svg width="16" height="16" viewBox="0 0 16 16" fill="none" xmlns="http://www.w3.org/2000/svg">
<g id="Frame">
<path id="Vector" d="M1.93375 3.21094C1.59494 3.21094 1.27 3.34553 1.03042 3.58511C0.790843 3.82469 0.65625 4.14962 0.65625 4.48844V7.4631C0.656282 7.52521 0.674427 7.58597 0.708462 7.63793C0.742497 7.68989 0.790946 7.7308 0.847875 7.75564C1.32284 7.96404 1.7107 8.33089 1.94522 8.79351C2.17973 9.25614 2.24635 9.78584 2.13368 10.2921L1.38123 13.6813C1.37091 13.728 1.37119 13.7764 1.38205 13.8229C1.39292 13.8694 1.41408 13.913 1.444 13.9502C1.47391 13.9875 1.51181 14.0176 1.55489 14.0382C1.59798 14.0589 1.64515 14.0697 1.69294 14.0697H5.1275L6.405 8.32094H13.7506C13.8353 8.32094 13.9166 8.28729 13.9765 8.2274C14.0364 8.1675 14.07 8.08627 14.07 8.00156V3.21094H1.93375Z" stroke="#60892A" stroke-linecap="round" stroke-linejoin="round"/>
<path id="Vector_2" d="M9.59636 8.32031L9.24888 9.36275C9.16405 9.61745 9.00114 9.83894 8.78329 9.9958C8.56543 10.1527 8.3037 10.2369 8.03525 10.2366H5.97656" stroke="#60892A" stroke-linecap="round" stroke-linejoin="round"/>
</g>
</svg>
