<svg width="16" height="16" viewBox="0 0 16 16" fill="none" xmlns="http://www.w3.org/2000/svg">
<g id="Frame" clip-path="url(#clip0_5614_299423)">
<path id="Vector" d="M6.08563 8.88854V7.99813C6.08563 7.82872 6.01833 7.66625 5.89854 7.54646C5.77875 7.42667 5.61628 7.35938 5.44688 7.35938H2.89188C2.72247 7.35938 2.56 7.42667 2.44021 7.54646C2.32042 7.66625 2.25313 7.82872 2.25313 7.99813V8.88854C1.61838 9.30163 1.13411 9.90878 0.872506 10.6195C0.6109 11.3302 0.585961 12.1064 0.801407 12.8325C1.01685 13.5585 1.46115 14.1955 2.06807 14.6485C2.67499 15.1014 3.41205 15.3462 4.16938 15.3462C4.9267 15.3462 5.66376 15.1014 6.27068 14.6485C6.8776 14.1955 7.3219 13.5585 7.53734 12.8325C7.75279 12.1064 7.72785 11.3302 7.46625 10.6195C7.20464 9.90878 6.72037 9.30163 6.08563 8.88854Z" stroke="#CB691A" stroke-linecap="round" stroke-linejoin="round"/>
<path id="Vector_2" d="M2.57031 11.8313C2.57031 12.2548 2.73855 12.6609 3.03803 12.9604C3.3375 13.2599 3.74367 13.4281 4.16719 13.4281C4.59071 13.4281 4.99688 13.2599 5.29635 12.9604C5.59582 12.6609 5.76406 12.2548 5.76406 11.8313C5.76406 11.4077 5.59582 11.0016 5.29635 10.7021C4.99688 10.4026 4.59071 10.2344 4.16719 10.2344C3.74367 10.2344 3.3375 10.4026 3.03803 10.7021C2.73855 11.0016 2.57031 11.4077 2.57031 11.8313Z" stroke="#CB691A" stroke-linecap="round" stroke-linejoin="round"/>
<path id="Vector_3" d="M11.1048 3.06651L10.4757 2.43734C10.4164 2.37795 10.3459 2.33083 10.2684 2.29869C10.1908 2.26655 10.1077 2.25 10.0238 2.25C9.93982 2.25 9.8567 2.26655 9.77916 2.29869C9.70162 2.33083 9.63117 2.37795 9.57185 2.43734L7.76546 4.24372C7.70607 4.30304 7.65896 4.37349 7.62681 4.45103C7.59467 4.52858 7.57812 4.6117 7.57812 4.69564C7.57812 4.77958 7.59467 4.8627 7.62681 4.94024C7.65896 5.01778 7.70607 5.08823 7.76546 5.14755L8.39527 5.77672C8.2386 6.51768 8.32557 7.28942 8.64321 7.97692C8.96084 8.66443 9.49214 9.23088 10.1579 9.59186C10.8237 9.95283 11.5883 10.089 12.3377 9.98006C13.0872 9.87112 13.7814 9.52291 14.3169 8.98733C14.8523 8.45175 15.2003 7.75748 15.3091 7.00799C15.4179 6.25851 15.2815 5.49394 14.9204 4.82825C14.5593 4.16257 13.9927 3.6314 13.3051 3.31392C12.6175 2.99645 11.8458 2.90966 11.1048 3.06651Z" stroke="#CB691A" stroke-linecap="round" stroke-linejoin="round"/>
<path id="Vector_4" d="M10.2344 6.50313C10.2344 6.92664 10.4026 7.33281 10.7021 7.63229C11.0016 7.93176 11.4077 8.1 11.8313 8.1C12.2548 8.1 12.6609 7.93176 12.9604 7.63229C13.2599 7.33281 13.4281 6.92664 13.4281 6.50313C13.4281 6.07961 13.2599 5.67344 12.9604 5.37396C12.6609 5.07449 12.2548 4.90625 11.8313 4.90625C11.4077 4.90625 11.0016 5.07449 10.7021 5.37396C10.4026 5.67344 10.2344 6.07961 10.2344 6.50313Z" stroke="#CB691A" stroke-linecap="round" stroke-linejoin="round"/>
<path id="Vector_5" d="M4.16937 7.36312C4.02182 6.13545 0.65625 5.76625 0.65625 3.21125C0.65625 0.65625 2.41281 0.65625 4.00969 0.65625C5.60656 0.65625 8.07597 1.806 8.7045 3.31537" stroke="#CB691A" stroke-linecap="round" stroke-linejoin="round"/>
</g>
<defs>
<clipPath id="clip0_5614_299423">
<rect width="16" height="16" fill="white"/>
</clipPath>
</defs>
</svg>
