<svg width="10" height="10" viewBox="0 0 10 10" fill="none" xmlns="http://www.w3.org/2000/svg">
<g id="Frame" clip-path="url(#clip0_5893_67821)">
<path id="Vector" d="M3.79961 5.55339V4.99688C3.79961 4.891 3.75755 4.78945 3.68268 4.71458C3.60781 4.63972 3.50627 4.59766 3.40039 4.59766H1.80352C1.69764 4.59766 1.59609 4.63972 1.52123 4.71458C1.44636 4.78945 1.4043 4.891 1.4043 4.99688V5.55339C1.00758 5.81157 0.704914 6.19103 0.54141 6.63523C0.377906 7.07942 0.36232 7.56456 0.496973 8.01833C0.631627 8.4721 0.909311 8.87022 1.28864 9.15333C1.66796 9.43644 2.12862 9.5894 2.60195 9.5894C3.07528 9.5894 3.53594 9.43644 3.91527 9.15333C4.2946 8.87022 4.57228 8.4721 4.70693 8.01833C4.84159 7.56456 4.826 7.07942 4.6625 6.63523C4.49899 6.19103 4.19633 5.81157 3.79961 5.55339Z" stroke="#CB691A" stroke-width="0.8" stroke-linecap="round" stroke-linejoin="round"/>
<path id="Vector_2" d="M1.60938 7.39258C1.60938 7.65728 1.71453 7.91113 1.9017 8.0983C2.08887 8.28547 2.34272 8.39062 2.60742 8.39062C2.87212 8.39062 3.12598 8.28547 3.31315 8.0983C3.50032 7.91113 3.60547 7.65728 3.60547 7.39258C3.60547 7.12788 3.50032 6.87402 3.31315 6.68685C3.12598 6.49968 2.87212 6.39453 2.60742 6.39453C2.34272 6.39453 2.08887 6.49968 1.9017 6.68685C1.71453 6.87402 1.60938 7.12788 1.60938 7.39258Z" stroke="#CB691A" stroke-width="0.8" stroke-linecap="round" stroke-linejoin="round"/>
<path id="Vector_3" d="M6.93858 1.91657L6.54535 1.52334C6.50827 1.48622 6.46424 1.45677 6.41578 1.43668C6.36731 1.41659 6.31536 1.40625 6.2629 1.40625C6.21044 1.40625 6.15849 1.41659 6.11002 1.43668C6.06156 1.45677 6.01753 1.48622 5.98045 1.52334L4.85146 2.65233C4.81434 2.6894 4.7849 2.73343 4.76481 2.7819C4.74472 2.83036 4.73437 2.88231 4.73438 2.93477C4.73437 2.98724 4.74472 3.03919 4.76481 3.08765C4.7849 3.13611 4.81434 3.18014 4.85146 3.21722L5.24509 3.61045C5.14717 4.07355 5.20153 4.55589 5.40005 4.98558C5.59857 5.41527 5.93064 5.7693 6.34675 5.99491C6.76285 6.22052 7.24073 6.30562 7.70914 6.23754C8.17755 6.16945 8.61142 5.95182 8.94608 5.61708C9.28074 5.28234 9.49827 4.84842 9.56624 4.38C9.63422 3.91157 9.549 3.43371 9.32329 3.01766C9.09759 2.6016 8.74348 2.26962 8.31374 2.0712C7.884 1.87278 7.40165 1.81854 6.93858 1.91657Z" stroke="#CB691A" stroke-width="0.8" stroke-linecap="round" stroke-linejoin="round"/>
<path id="Vector_4" d="M6.39844 4.06445C6.39844 4.32915 6.50359 4.58301 6.69076 4.77018C6.87793 4.95735 7.13179 5.0625 7.39648 5.0625C7.66118 5.0625 7.91504 4.95735 8.10221 4.77018C8.28938 4.58301 8.39453 4.32915 8.39453 4.06445C8.39453 3.79975 8.28938 3.5459 8.10221 3.35873C7.91504 3.17156 7.66118 3.06641 7.39648 3.06641C7.13179 3.06641 6.87793 3.17156 6.69076 3.35873C6.50359 3.5459 6.39844 3.79975 6.39844 4.06445Z" stroke="#CB691A" stroke-width="0.8" stroke-linecap="round" stroke-linejoin="round"/>
<path id="Vector_5" d="M2.60195 4.60195C2.50973 3.83465 0.40625 3.60391 0.40625 2.00703C0.40625 0.410156 1.5041 0.410156 2.50215 0.410156C3.5002 0.410156 5.04358 1.12875 5.43641 2.0721" stroke="#CB691A" stroke-width="0.8" stroke-linecap="round" stroke-linejoin="round"/>
</g>
<defs>
<clipPath id="clip0_5893_67821">
<rect width="10" height="10" fill="white"/>
</clipPath>
</defs>
</svg>
