<svg width="10" height="10" viewBox="0 0 10 10" fill="none" xmlns="http://www.w3.org/2000/svg">
<g id="Frame">
<path id="Vector" d="M1.20469 2.00391C0.992929 2.00391 0.789843 2.08803 0.640107 2.23776C0.490371 2.3875 0.40625 2.59058 0.40625 2.80234V4.66151C0.40627 4.70033 0.41761 4.7383 0.438882 4.77078C0.460154 4.80325 0.490435 4.82882 0.526016 4.84435C0.822866 4.9746 1.06528 5.20388 1.21185 5.49302C1.35843 5.78216 1.40006 6.11322 1.32964 6.42965L0.859363 8.5479C0.852912 8.57706 0.853087 8.6073 0.859876 8.63639C0.866666 8.66548 0.879896 8.69267 0.898592 8.71596C0.917288 8.73925 0.940973 8.75805 0.967901 8.77098C0.994829 8.7839 1.02431 8.79061 1.05418 8.79062H3.20078L3.99922 5.19766H8.59023C8.64317 5.19766 8.69395 5.17663 8.73138 5.13919C8.76881 5.10176 8.78984 5.05099 8.78984 4.99805V2.00391H1.20469Z" stroke="#60892A" stroke-width="0.8" stroke-linecap="round" stroke-linejoin="round"/>
<path id="Vector_2" d="M5.99675 5.19922L5.77957 5.85074C5.72655 6.00993 5.62474 6.14836 5.48858 6.2464C5.35242 6.34443 5.18884 6.39708 5.02106 6.39688H3.73438" stroke="#60892A" stroke-width="0.8" stroke-linecap="round" stroke-linejoin="round"/>
</g>
</svg>
