<svg width="16" height="16" viewBox="0 0 16 16" fill="none" xmlns="http://www.w3.org/2000/svg">
<g id="Frame" clip-path="url(#clip0_5614_299431)">
<path id="Vector" d="M7.03906 3.46518C7.03901 3.41075 7.05287 3.35721 7.07932 3.30964C7.10578 3.26207 7.14395 3.22206 7.19022 3.19339C7.23648 3.16472 7.28931 3.14835 7.34368 3.14583C7.39805 3.14332 7.45216 3.15474 7.50088 3.17902C8.66392 3.68009 9.926 3.90904 11.1909 3.84843C12.4562 3.90869 13.7185 3.6793 14.8816 3.17774C14.9304 3.15356 14.9846 3.14226 15.039 3.14491C15.0934 3.14756 15.1462 3.16407 15.1924 3.19287C15.2386 3.22167 15.2767 3.2618 15.303 3.30947C15.3293 3.35713 15.343 3.41073 15.3428 3.46518V14.2275C15.3428 14.2802 15.3298 14.3322 15.3048 14.3787C15.2798 14.4251 15.2437 14.4647 15.1997 14.4938C14.8229 14.7436 13.6578 15.344 11.1909 15.344C8.72409 15.344 7.55901 14.7436 7.18214 14.4938C7.13815 14.4647 7.10205 14.4251 7.07709 14.3787C7.05212 14.3322 7.03905 14.2802 7.03906 14.2275V3.46518Z" stroke="#2F757F" stroke-linecap="round" stroke-linejoin="round"/>
<path id="Vector_2" d="M9.28125 2.5725C9.28125 2.06428 9.48314 1.57687 9.84251 1.21751C10.2019 0.85814 10.6893 0.65625 11.1975 0.65625C11.7057 0.65625 12.1931 0.85814 12.5525 1.21751C12.9119 1.57687 13.1137 2.06428 13.1137 2.5725" stroke="#2F757F" stroke-linecap="round" stroke-linejoin="round"/>
<path id="Vector_3" d="M5.12906 14.7075C5.12906 14.8769 5.06177 15.0394 4.94198 15.1592C4.82219 15.279 4.65972 15.3462 4.49031 15.3462C4.32091 15.3462 4.15844 15.279 4.03865 15.1592C3.91886 15.0394 3.85156 14.8769 3.85156 14.7075V3.52937C3.85156 3.35997 3.91886 3.1975 4.03865 3.07771C4.15844 2.95792 4.32091 2.89062 4.49031 2.89062C4.65972 2.89062 4.82219 2.95792 4.94198 3.07771C5.06177 3.1975 5.12906 3.35997 5.12906 3.52937V14.7075Z" stroke="#2F757F" stroke-linecap="round" stroke-linejoin="round"/>
<path id="Vector_4" d="M3.85 10.2344V11.5119H1.295C1.12559 11.5119 0.963124 11.4446 0.843336 11.3248C0.723547 11.205 0.65625 11.0425 0.65625 10.8731C0.65625 10.7037 0.723547 10.5412 0.843336 10.4215C0.963124 10.3017 1.12559 10.2344 1.295 10.2344H3.85Z" stroke="#2F757F" stroke-linecap="round" stroke-linejoin="round"/>
</g>
<defs>
<clipPath id="clip0_5614_299431">
<rect width="16" height="16" fill="white"/>
</clipPath>
</defs>
</svg>
