<svg width="20" height="20" viewBox="0 0 20 20" fill="none" xmlns="http://www.w3.org/2000/svg">
<g id="Frame" clip-path="url(#clip0_5461_196291)">
<path id="Vector" d="M3.60938 9.99687C3.60938 11.6909 4.28234 13.3156 5.48023 14.5135C6.67812 15.7114 8.3028 16.3844 9.99687 16.3844C11.6909 16.3844 13.3156 15.7114 14.5135 14.5135C15.7114 13.3156 16.3844 11.6909 16.3844 9.99687C16.3844 8.3028 15.7114 6.67812 14.5135 5.48023C13.3156 4.28234 11.6909 3.60938 9.99687 3.60938C8.3028 3.60938 6.67812 4.28234 5.48023 5.48023C4.28234 6.67812 3.60938 8.3028 3.60938 9.99687Z" stroke="#4F4F4F" stroke-linecap="round" stroke-linejoin="round"/>
<path id="Vector_2" d="M7.20313 9.99766C7.20312 10.3646 7.27541 10.728 7.41585 11.0671C7.55628 11.4061 7.76213 11.7142 8.02162 11.9737C8.28112 12.2332 8.58919 12.439 8.92824 12.5795C9.26728 12.7199 9.63067 12.7922 9.99766 12.7922C10.3646 12.7922 10.728 12.7199 11.0671 12.5795C11.4061 12.439 11.7142 12.2332 11.9737 11.9737C12.2332 11.7142 12.439 11.4061 12.5795 11.0671C12.7199 10.728 12.7922 10.3646 12.7922 9.99766C12.7922 9.63067 12.7199 9.26728 12.5795 8.92824C12.439 8.58919 12.2332 8.28112 11.9737 8.02162C11.7142 7.76213 11.4061 7.55628 11.0671 7.41585C10.728 7.27541 10.3646 7.20313 9.99766 7.20312C9.63067 7.20313 9.26728 7.27541 8.92824 7.41585C8.58919 7.55628 8.28112 7.76213 8.02162 8.02162C7.76213 8.28112 7.55628 8.58919 7.41585 8.92824C7.27541 9.26728 7.20312 9.63067 7.20313 9.99766Z" stroke="#4F4F4F" stroke-linecap="round" stroke-linejoin="round"/>
<path id="Vector_3" d="M10 1.21484V3.61016" stroke="#4F4F4F" stroke-linecap="round" stroke-linejoin="round"/>
<path id="Vector_4" d="M10 16.3906V18.7859" stroke="#4F4F4F" stroke-linecap="round" stroke-linejoin="round"/>
<path id="Vector_5" d="M18.7859 10H16.3906" stroke="#4F4F4F" stroke-linecap="round" stroke-linejoin="round"/>
<path id="Vector_6" d="M3.61406 10H1.21875" stroke="#4F4F4F" stroke-linecap="round" stroke-linejoin="round"/>
</g>
<defs>
<clipPath id="clip0_5461_196291">
<rect width="20" height="20" fill="white"/>
</clipPath>
</defs>
</svg>
