<svg width="16" height="16" viewBox="0 0 16 16" fill="none" xmlns="http://www.w3.org/2000/svg">
<g id="Frame" clip-path="url(#clip0_5614_299443)">
<path id="Vector" d="M0.936968 13.7082C0.757227 13.8879 0.65625 14.1317 0.65625 14.3859C0.65625 14.6401 0.757227 14.8839 0.936968 15.0636C1.11671 15.2434 1.36049 15.3443 1.61468 15.3443C1.86887 15.3443 2.11265 15.2434 2.2924 15.0636L13.9381 3.41729L12.5833 2.0625L0.936968 13.7082Z" stroke="#903470" stroke-linecap="round" stroke-linejoin="round"/>
<path id="Vector_2" d="M5.3125 3.83203L8.06104 6.58057" stroke="#903470" stroke-linecap="round" stroke-linejoin="round"/>
<path id="Vector_3" d="M9.42042 5.2251L6.67188 2.47656" stroke="#903470" stroke-linecap="round" stroke-linejoin="round"/>
<path id="Vector_4" d="M4.22208 2.29092C4.04755 2.47163 3.95098 2.71365 3.95316 2.96487C3.95534 3.21609 4.05611 3.4564 4.23375 3.63404C4.4114 3.81168 4.65171 3.91245 4.90292 3.91463C5.15414 3.91681 5.39617 3.82024 5.57687 3.64571L6.4807 2.74252C6.66044 2.56244 6.76129 2.31833 6.76105 2.0639C6.76081 1.80947 6.6595 1.56555 6.47942 1.38581C6.29934 1.20607 6.05524 1.10523 5.80081 1.10547C5.54638 1.10571 5.30246 1.20701 5.12272 1.38709L4.22208 2.29092Z" stroke="#903470" stroke-linecap="round" stroke-linejoin="round"/>
<path id="Vector_5" d="M13.7074 3.19146C13.7964 3.28045 13.902 3.35106 14.0183 3.39924C14.1345 3.44742 14.2591 3.47224 14.3849 3.47227C14.5108 3.4723 14.6354 3.44754 14.7516 3.39942C14.8679 3.35129 14.9736 3.28073 15.0626 3.19178C15.1515 3.10282 15.2222 2.9972 15.2703 2.88096C15.3185 2.76472 15.3433 2.64012 15.3434 2.51429C15.3434 2.38845 15.3186 2.26385 15.2705 2.14758C15.2224 2.03131 15.1518 1.92567 15.0629 1.83667L14.159 0.932836C13.9793 0.75318 13.7356 0.652284 13.4814 0.652344C13.2273 0.652404 12.9836 0.753415 12.8039 0.933156C12.6243 1.1129 12.5234 1.35664 12.5234 1.61078C12.5235 1.86491 12.6245 2.10861 12.8042 2.28826L13.7074 3.19146Z" stroke="#903470" stroke-linecap="round" stroke-linejoin="round"/>
</g>
<defs>
<clipPath id="clip0_5614_299443">
<rect width="16" height="16" fill="white"/>
</clipPath>
</defs>
</svg>
