<svg width="10" height="1" viewBox="0 0 10 1" fill="none" xmlns="http://www.w3.org/2000/svg">
<g id="Frame" clip-path="url(#clip0_5893_67954)">
<path id="Vector" d="M8.75617 4.64547C8.25047 3.42656 7.99432 2.11862 8.00285 0.798995C8.00014 0.694925 7.95689 0.596029 7.88231 0.523391C7.80773 0.450754 7.70773 0.410121 7.60363 0.410156H7.19922C7.09334 0.410156 6.9918 0.452217 6.91693 0.527085C6.84206 0.601953 6.8 0.703496 6.8 0.809375V3.60391C6.8 3.70979 6.75794 3.81133 6.68307 3.8862C6.6082 3.96106 6.50666 4.00312 6.40078 4.00312H3.60625C3.50037 4.00312 3.39883 3.96106 3.32396 3.8862C3.24909 3.81133 3.20703 3.70979 3.20703 3.60391V0.809375C3.20703 0.703496 3.16497 0.601953 3.0901 0.527085C3.01523 0.452217 2.91369 0.410156 2.80781 0.410156H2.4034C2.2993 0.410121 2.1993 0.450754 2.12472 0.523391C2.05014 0.596029 2.00689 0.694925 2.00419 0.798995C2.01272 2.11862 1.75656 3.42656 1.25086 4.64547C1.22452 4.70013 1.21087 4.76004 1.21094 4.82072V9.19297C1.21094 9.29885 1.253 9.40039 1.32787 9.47526C1.40273 9.55013 1.50428 9.59219 1.61016 9.59219H8.39688C8.50275 9.59219 8.6043 9.55013 8.67917 9.47526C8.75403 9.40039 8.79609 9.29885 8.79609 9.19297V4.82072C8.79616 4.76004 8.78251 4.70013 8.75617 4.64547Z" stroke="#D15447" stroke-width="0.8" stroke-linecap="round" stroke-linejoin="round"/>
</g>
<defs>
<clipPath id="clip0_5893_67954">
<rect width="10" height="10" fill="white"/>
</clipPath>
</defs>
</svg>
