<svg xmlns="http://www.w3.org/2000/svg" width="25" height="25" viewBox="0 0 25 25" fill="none">
  <g clip-path="url(#clip0_4506_352974)">
    <path d="M5.07031 19.418V12.3867" stroke="#4F4F4F" stroke-width="1.5" stroke-linecap="round" stroke-linejoin="round"/>
    <path d="M5.07031 12.3867H5.77344C6.33288 12.3867 6.86941 12.609 7.26499 13.0045C7.66058 13.4001 7.88281 13.9367 7.88281 14.4961C7.88281 15.0555 7.66058 15.5921 7.26499 15.9876C6.86941 16.3832 6.33288 16.6055 5.77344 16.6055H5.07031" stroke="#4F4F4F" stroke-width="1.5" stroke-linecap="round" stroke-linejoin="round"/>
    <path d="M10.6953 19.418C11.4412 19.418 12.1566 19.1217 12.6841 18.5942C13.2115 18.0668 13.5078 17.3514 13.5078 16.6055V15.1992C13.5078 14.4533 13.2115 13.7379 12.6841 13.2105C12.1566 12.683 11.4412 12.3867 10.6953 12.3867V19.418Z" stroke="#4F4F4F" stroke-width="1.5" stroke-linecap="round" stroke-linejoin="round"/>
    <path d="M16.3203 19.418V13.793C16.3203 13.42 16.4685 13.0623 16.7322 12.7986C16.9959 12.5349 17.3536 12.3867 17.7266 12.3867H19.1328" stroke="#4F4F4F" stroke-width="1.5" stroke-linecap="round" stroke-linejoin="round"/>
    <path d="M16.3203 16.6055H18.4297" stroke="#4F4F4F" stroke-width="1.5" stroke-linecap="round" stroke-linejoin="round"/>
    <path d="M22.2359 6.35016C22.4997 6.61363 22.6481 6.97107 22.6484 7.34391V20.8261C22.6479 21.385 22.4256 21.921 22.0303 22.3161C21.635 22.7113 21.099 22.9333 20.54 22.9336H3.665C3.10572 22.9338 2.56924 22.712 2.1735 22.3168C1.77777 21.9216 1.55519 21.3854 1.55469 20.8261V3.95109C1.55444 3.67385 1.60885 3.39928 1.71481 3.14308C1.82076 2.88688 1.97618 2.65408 2.17218 2.458C2.36818 2.26191 2.60091 2.10639 2.85706 2.00032C3.11321 1.89425 3.38776 1.83972 3.665 1.83984H17.1434C17.3281 1.83976 17.5111 1.87606 17.6817 1.94668C17.8524 2.0173 18.0075 2.12084 18.1381 2.25141L22.2359 6.35016Z" stroke="#4F4F4F" stroke-width="1.5" stroke-linecap="round" stroke-linejoin="round"/>
    <path d="M17.0234 1.83984V6.05859C17.0234 6.43155 17.1716 6.78924 17.4353 7.05296C17.699 7.31669 18.0567 7.46484 18.4297 7.46484H22.6484" stroke="#4F4F4F" stroke-width="1.5" stroke-linecap="round" stroke-linejoin="round"/>
  </g>
  <defs>
    <clipPath id="clip0_4506_352974">
      <rect width="24" height="24" fill="white" transform="translate(0.101562 0.386719)"/>
    </clipPath>
  </defs>
</svg>