<svg width="24" height="20" viewBox="0 0 24 20" fill="none" xmlns="http://www.w3.org/2000/svg">
<g id="Button Play Pause">
<g id="button-play-pause--button-television-buttons-movies-play-pause-video-controls">
<path id="Vector" d="M3.07031 16.1328L3.07031 3.8044" stroke="#383838" stroke-width="1.67" stroke-linecap="round" stroke-linejoin="round"/>
<path id="Vector_2" d="M7.02344 16.1328L7.02344 3.8044" stroke="#383838" stroke-width="1.67" stroke-linecap="round" stroke-linejoin="round"/>
<path id="Vector_3" d="M20.1641 5.46385C20.1647 5.28961 20.1197 5.11838 20.034 4.9688C19.9483 4.81908 19.825 4.69661 19.6775 4.61456C19.5325 4.52402 19.3666 4.47621 19.1975 4.47621C19.0285 4.47621 18.8625 4.52402 18.7175 4.61456L12.0372 9.13493C11.9069 9.22161 11.7996 9.34108 11.7253 9.48233C11.651 9.62358 11.6121 9.78206 11.6121 9.94312C11.6121 10.1042 11.651 10.2627 11.7253 10.4039C11.7996 10.5452 11.9069 10.6646 12.0372 10.7513L18.7175 15.2991C18.8625 15.3897 19.0284 15.4375 19.1975 15.4375C19.3666 15.4375 19.5325 15.3897 19.6775 15.2991C19.825 15.217 19.9483 15.0945 20.034 14.9449C20.1197 14.7952 20.1647 14.6241 20.1641 14.4498L20.1641 5.46385Z" stroke="#383838" stroke-width="1.67" stroke-linecap="round" stroke-linejoin="round"/>
</g>
</g>
</svg>
