<svg width="16" height="20" viewBox="0 0 16 20" fill="none" xmlns="http://www.w3.org/2000/svg">
<g id="Button Play" clip-path="url(#clip0_5744_179600)">
<g id="button-play--button-television-buttons-movies-play-tv-video-controls">
<path id="Vector" d="M1.79687 16.8299C1.80058 17.0761 1.86328 17.3165 1.97812 17.5249C2.09297 17.7333 2.25558 17.9017 2.44829 18.0118C2.64072 18.1362 2.85799 18.2014 3.07902 18.2014C3.30004 18.2014 3.51733 18.1362 3.70975 18.0118L12.6538 11.6887C12.8484 11.5815 13.0125 11.4137 13.1275 11.2047C13.2424 10.9956 13.3033 10.7537 13.3033 10.5068C13.3033 10.2599 13.2424 10.018 13.1275 9.80888C13.0125 9.5998 12.8484 9.43203 12.6538 9.32487L3.70976 3.04897C3.51733 2.92469 3.30005 2.85938 3.07902 2.85938C2.858 2.85938 2.64072 2.92469 2.44829 3.04897C2.25558 3.15911 2.09297 3.32752 1.97812 3.53589C1.86328 3.74426 1.80059 3.98464 1.79687 4.23087L1.79687 16.8299Z" stroke="#383838" stroke-width="1.67" stroke-linecap="round" stroke-linejoin="round"/>
</g>
</g>
<defs>
<clipPath id="clip0_5744_179600">
<rect width="15.3419" height="19.1775" fill="white" transform="translate(0.21875 0.382812)"/>
</clipPath>
</defs>
</svg>
