<svg width="16" height="20" viewBox="0 0 16 20" fill="none" xmlns="http://www.w3.org/2000/svg">
<g id="Button Play" clip-path="url(#clip0_5744_179688)">
<g id="button-play--button-television-buttons-movies-play-tv-video-controls">
<path id="Vector" d="M14.2266 3.11538C14.2229 2.86919 14.1602 2.62879 14.0453 2.42042C13.9305 2.21205 13.7679 2.04363 13.5752 1.93348C13.3827 1.80915 13.1654 1.7439 12.9444 1.7439C12.7234 1.7439 12.5061 1.80915 12.3137 1.93348L3.36968 8.25665C3.17509 8.36381 3.01089 8.53158 2.89591 8.74066C2.78103 8.94974 2.72013 9.19164 2.72013 9.43855C2.72013 9.68546 2.78103 9.92736 2.89591 10.1364C3.01089 10.3455 3.17509 10.5133 3.36968 10.6204L12.3137 16.8963C12.5061 17.0206 12.7234 17.0859 12.9444 17.0859C13.1654 17.0859 13.3827 17.0206 13.5751 16.8963C13.7679 16.7862 13.9305 16.6178 14.0453 16.4094C14.1602 16.2011 14.2229 15.9607 14.2266 15.7144L14.2266 3.11538Z" stroke="#383838" stroke-width="1.67" stroke-linecap="round" stroke-linejoin="round"/>
</g>
</g>
<defs>
<clipPath id="clip0_5744_179688">
<rect width="15.3419" height="19.1775" fill="white" transform="translate(15.8047 19.5547) rotate(-180)"/>
</clipPath>
</defs>
</svg>
