<svg width="24" height="20" viewBox="0 0 24 20" fill="none" xmlns="http://www.w3.org/2000/svg">
<g id="Button Play Pause">
<g id="button-play-pause--button-television-buttons-movies-play-pause-video-controls">
<path id="Vector" d="M20.9531 3.80859L20.9531 16.137" stroke="#383838" stroke-width="1.67" stroke-linecap="round" stroke-linejoin="round"/>
<path id="Vector_2" d="M17 3.80859L17 16.137" stroke="#383838" stroke-width="1.67" stroke-linecap="round" stroke-linejoin="round"/>
<path id="Vector_3" d="M3.85938 14.4776C3.85874 14.6518 3.9037 14.823 3.98943 14.9726C4.07516 15.1223 4.19841 15.2448 4.34594 15.3268C4.49096 15.4174 4.65685 15.4652 4.82593 15.4652C4.99499 15.4652 5.16089 15.4174 5.30591 15.3268L11.9862 10.8065C12.1165 10.7198 12.2238 10.6003 12.2981 10.4591C12.3724 10.3178 12.4114 10.1593 12.4114 9.99829C12.4114 9.83722 12.3724 9.67875 12.2981 9.53749C12.2238 9.39623 12.1165 9.27676 11.9862 9.19009L5.30591 4.64227C5.16089 4.55173 4.99499 4.50391 4.82593 4.50391C4.65686 4.50391 4.49096 4.55173 4.34594 4.64227C4.19841 4.72442 4.07516 4.8469 3.98943 4.99652C3.90371 5.14616 3.85875 5.31731 3.85938 5.49156L3.85938 14.4776Z" stroke="#383838" stroke-width="1.67" stroke-linecap="round" stroke-linejoin="round"/>
</g>
</g>
</svg>
