<svg width="27" height="28" viewBox="0 0 27 28" fill="none" xmlns="http://www.w3.org/2000/svg">
<g id="Component 66" clip-path="url(#clip0_5744_179661)">
<path id="Vector" d="M17 22.8715C19.3575 22.8715 21.6184 21.935 23.2854 20.268C24.9524 18.601 25.8889 16.3401 25.8889 13.9826C25.8889 11.6252 24.9524 9.36424 23.2854 7.69725C21.6184 6.03026 19.3575 5.09375 17 5.09375" stroke="#383838" stroke-width="1.66667" stroke-linejoin="round"/>
<path id="Vector_2" d="M17 18.424C18.1787 18.424 19.3092 17.9558 20.1427 17.1223C20.9762 16.2888 21.4444 15.1583 21.4444 13.9796C21.4444 12.8009 20.9762 11.6704 20.1427 10.8369C19.3092 10.0034 18.1787 9.53516 17 9.53516" stroke="#383838" stroke-width="1.66667" stroke-linejoin="round"/>
<path id="Vector_3" d="M14.7786 5.55056C14.7786 4.10037 13.0547 3.34205 11.9857 4.322L6.77211 9.10139C6.46472 9.38318 6.06287 9.5395 5.64587 9.5395H3.11198C2.1915 9.5395 1.44531 10.2857 1.44531 11.2062V16.7617C1.44531 17.6822 2.1915 18.4284 3.11198 18.4284H5.64587C6.06287 18.4284 6.46472 18.5847 6.77211 18.8665L11.9857 23.6459C13.0547 24.6258 14.7786 23.8675 14.7786 22.4173V5.55056Z" stroke="#383838" stroke-width="1.66667" stroke-linejoin="round"/>
</g>
<defs>
<clipPath id="clip0_5744_179661">
<rect width="26.6667" height="26.6667" fill="white" transform="translate(0.335938 0.648438)"/>
</clipPath>
</defs>
</svg>
