<svg width="53" height="41" viewBox="0 0 53 41" fill="none" xmlns="http://www.w3.org/2000/svg">
<rect x="0.523438" y="0.980469" width="51.6667" height="40" rx="3.33333" fill="#EFF0F0"/>
<g clip-path="url(#clip0_5744_179676)">
<mask id="path-2-inside-1_5744_179676" fill="white">
<path d="M21.3594 10.9805H15.526C15.084 10.9805 14.6601 11.1561 14.3475 11.4686C14.035 11.7812 13.8594 12.2051 13.8594 12.6471V18.4838"/>
</mask>
<path d="M21.3594 12.6471C22.2799 12.6471 23.026 11.9009 23.026 10.9805C23.026 10.06 22.2799 9.3138 21.3594 9.3138V12.6471ZM13.8594 12.6471H12.1927H13.8594ZM12.1927 18.4838C12.1927 19.4043 12.9389 20.1505 13.8594 20.1505C14.7798 20.1505 15.526 19.4043 15.526 18.4838H12.1927ZM21.3594 9.3138H15.526V12.6471H21.3594V9.3138ZM15.526 9.3138C14.642 9.3138 13.7941 9.66499 13.169 10.2901L15.526 12.6471L15.526 12.6471V9.3138ZM13.169 10.2901C12.5439 10.9152 12.1927 11.7631 12.1927 12.6471H15.526H15.526L13.169 10.2901ZM12.1927 12.6471V18.4838H15.526V12.6471H12.1927Z" fill="#383838" mask="url(#path-2-inside-1_5744_179676)"/>
<mask id="path-4-inside-2_5744_179676" fill="white">
<path d="M38.8594 18.4838V12.6471C38.8594 12.2051 38.6838 11.7812 38.3712 11.4686C38.0587 11.1561 37.6347 10.9805 37.1927 10.9805H31.3594"/>
</mask>
<path d="M37.1927 18.4838C37.1927 19.4043 37.9389 20.1505 38.8594 20.1505C39.7799 20.1505 40.526 19.4043 40.526 18.4838H37.1927ZM31.3594 9.3138C30.4389 9.3138 29.6927 10.06 29.6927 10.9805C29.6927 11.9009 30.4389 12.6471 31.3594 12.6471V9.3138ZM40.526 18.4838V12.6471H37.1927V18.4838H40.526ZM40.526 12.6471C40.526 11.7631 40.1749 10.9152 39.5497 10.2901L37.1927 12.6471H37.1927H40.526ZM39.5497 10.2901C38.9246 9.66499 38.0768 9.3138 37.1927 9.3138V12.6471L37.1927 12.6471L39.5497 10.2901ZM37.1927 9.3138H31.3594V12.6471H37.1927V9.3138Z" fill="#383838" mask="url(#path-4-inside-2_5744_179676)"/>
<mask id="path-6-inside-3_5744_179676" fill="white">
<path d="M13.8594 23.4844V29.3177C13.8594 29.7597 14.035 30.1837 14.3475 30.4962C14.6601 30.8088 15.084 30.9844 15.526 30.9844H21.3594"/>
</mask>
<path d="M15.526 23.4844C15.526 22.5639 14.7798 21.8177 13.8594 21.8177C12.9389 21.8177 12.1927 22.5639 12.1927 23.4844H15.526ZM13.8594 29.3177H12.1927H13.8594ZM21.3594 32.651C22.2799 32.651 23.026 31.9049 23.026 30.9844C23.026 30.0639 22.2799 29.3177 21.3594 29.3177V32.651ZM12.1927 23.4844V29.3177H15.526V23.4844H12.1927ZM12.1927 29.3177C12.1927 30.2018 12.5439 31.0496 13.169 31.6747L15.526 29.3177L15.526 29.3177H12.1927ZM13.169 31.6747C13.7941 32.2999 14.642 32.651 15.526 32.651V29.3177L15.526 29.3177L13.169 31.6747ZM15.526 32.651H21.3594V29.3177H15.526V32.651Z" fill="#383838" mask="url(#path-6-inside-3_5744_179676)"/>
<mask id="path-8-inside-4_5744_179676" fill="white">
<path d="M31.3594 30.981H37.1927C37.6347 30.981 38.0587 30.8054 38.3712 30.4929C38.6838 30.1803 38.8594 29.7564 38.8594 29.3144V23.4844"/>
</mask>
<path d="M31.3594 29.3144C30.4389 29.3144 29.6927 30.0606 29.6927 30.981C29.6927 31.9015 30.4389 32.6477 31.3594 32.6477V29.3144ZM40.526 23.4844C40.526 22.5639 39.7799 21.8177 38.8594 21.8177C37.9389 21.8177 37.1927 22.5639 37.1927 23.4844H40.526ZM31.3594 32.6477H37.1927V29.3144H31.3594V32.6477ZM37.1927 32.6477C38.0768 32.6477 38.9246 32.2965 39.5497 31.6714L37.1927 29.3144L37.1927 29.3144V32.6477ZM39.5497 31.6714C40.1749 31.0463 40.526 30.1984 40.526 29.3144H37.1927L37.1927 29.3144L39.5497 31.6714ZM40.526 29.3144V23.4844H37.1927V29.3144H40.526Z" fill="#383838" mask="url(#path-8-inside-4_5744_179676)"/>
</g>
<defs>
<clipPath id="clip0_5744_179676">
<rect width="25" height="20.0033" fill="white" transform="translate(13.8594 10.9805)"/>
</clipPath>
</defs>
</svg>
