<svg width="23" height="24" viewBox="0 0 23 24" fill="none" xmlns="http://www.w3.org/2000/svg">
<g id="Gallery View" clip-path="url(#clip0_5744_179670)">
<path id="Vector" d="M22.1686 13.9885C22.1686 14.4999 21.7541 14.9144 21.2427 14.9144H2.4728C1.96143 14.9144 1.54688 14.4999 1.54688 13.9885V4.03139C1.54688 3.52002 1.96142 3.10547 2.4728 3.10547H21.2427C21.7541 3.10547 22.1686 3.52002 22.1686 4.03139V13.9885Z" stroke="#383838" stroke-width="1.5" stroke-linejoin="round"/>
<path id="Vector_2" d="M4.70217 19.9323C4.70217 20.4437 4.28763 20.8582 3.77625 20.8582H2.4728C1.96142 20.8582 1.54688 20.4437 1.54688 19.9323V18.5314C1.54688 18.0201 1.96142 17.6055 2.4728 17.6055H3.77625C4.28763 17.6055 4.70217 18.0201 4.70217 18.5314V19.9323Z" stroke="#383838" stroke-width="1.5" stroke-linejoin="round"/>
<path id="Vector_3" d="M10.5225 19.9323C10.5225 20.4437 10.108 20.8582 9.59656 20.8582H8.29311C7.78173 20.8582 7.36719 20.4437 7.36719 19.9323V18.5314C7.36719 18.0201 7.78173 17.6055 8.29311 17.6055H9.59656C10.108 17.6055 10.5225 18.0201 10.5225 18.5314V19.9323Z" stroke="#383838" stroke-width="1.5" stroke-linejoin="round"/>
<path id="Vector_4" d="M16.3506 19.9323C16.3506 20.4437 15.9361 20.8582 15.4247 20.8582H14.1212C13.6098 20.8582 13.1953 20.4437 13.1953 19.9323V18.5314C13.1953 18.0201 13.6098 17.6055 14.1212 17.6055H15.4247C15.9361 17.6055 16.3506 18.0201 16.3506 18.5314V19.9323Z" stroke="#383838" stroke-width="1.5" stroke-linejoin="round"/>
<path id="Vector_5" d="M22.1709 19.9323C22.1709 20.4437 21.7564 20.8582 21.245 20.8582H19.9416C19.4302 20.8582 19.0156 20.4437 19.0156 19.9323V18.5314C19.0156 18.0201 19.4302 17.6055 19.9416 17.6055H21.245C21.7564 17.6055 22.1709 18.0201 22.1709 18.5314V19.9323Z" stroke="#383838" stroke-width="1.5" stroke-linejoin="round"/>
</g>
<defs>
<clipPath id="clip0_5744_179670">
<rect width="22.2222" height="22.2222" fill="white" transform="translate(0.742188 0.871094)"/>
</clipPath>
</defs>
</svg>
