<svg width="20" height="20" viewBox="0 0 20 20" fill="none" xmlns="http://www.w3.org/2000/svg">
<g id="Maps">
<path id="Vector" d="M13.1153 2.5776C12.8566 2.47413 12.568 2.47413 12.3093 2.5776L7.68885 4.42621C7.43014 4.52968 7.14155 4.52968 6.88284 4.42621L2.60389 2.71435C2.52133 2.68126 2.4319 2.66897 2.34348 2.67857C2.25505 2.68816 2.17034 2.71935 2.0968 2.76937C2.02326 2.8194 1.96315 2.88674 1.92174 2.96546C1.88034 3.04418 1.85893 3.13187 1.85938 3.22082V13.6201C1.85935 13.837 1.92433 14.049 2.04595 14.2287C2.16756 14.4083 2.34023 14.5474 2.54167 14.628L6.88284 16.3644C7.14155 16.4679 7.43014 16.4679 7.68885 16.3644L12.3093 14.5158C12.568 14.4124 12.8566 14.4124 13.1153 14.5158L17.3943 16.2248C17.4768 16.2579 17.5663 16.2702 17.6547 16.2606C17.7431 16.251 17.8278 16.2198 17.9014 16.1698C17.9749 16.1197 18.035 16.0524 18.0764 15.9737C18.1178 15.895 18.1392 15.8073 18.1388 15.7183V5.32194C18.1388 5.105 18.0738 4.89302 17.9522 4.71336C17.8306 4.53371 17.6579 4.39463 17.4565 4.31407L13.1153 2.5776Z" stroke="#292929" stroke-width="1.25" stroke-linecap="round" stroke-linejoin="round"/>
<path id="Vector_2" d="M7.28906 4.50781V16.446" stroke="#292929" stroke-width="1.25" stroke-linecap="round" stroke-linejoin="round"/>
<path id="Vector_3" d="M12.7109 2.5V14.4382" stroke="#292929" stroke-width="1.25" stroke-linecap="round" stroke-linejoin="round"/>
</g>
</svg>
