<svg width="30" height="30" viewBox="0 0 30 30" fill="none" xmlns="http://www.w3.org/2000/svg">
<g id="screenshot">
<path id="Vector" d="M8.01327 1.66406C8.01327 1.66406 6.05454 1.66406 3.97771 1.7866C3.40714 1.8185 2.86833 2.05952 2.46424 2.46361C2.06016 2.86769 1.81914 3.40651 1.78724 3.97708C1.66406 6.05327 1.66406 8.01327 1.66406 8.01327M21.9815 1.66406C21.9815 1.66406 23.9409 1.66406 26.0177 1.7866C26.5883 1.8185 27.1271 2.05952 27.5312 2.46361C27.9353 2.86769 28.1763 3.40651 28.2082 3.97708C28.3307 6.05327 28.3307 8.01327 28.3307 8.01327M21.9815 28.3307C21.9815 28.3307 23.9403 28.3307 26.0171 28.2082C26.5876 28.1763 27.1265 27.9353 27.5305 27.5312C27.9346 27.1271 28.1757 26.5883 28.2076 26.0177C28.3307 23.9415 28.3307 21.9815 28.3307 21.9815M8.01327 28.3307C8.01327 28.3307 6.0539 28.3307 3.97708 28.2082C3.40651 28.1763 2.86769 27.9353 2.46361 27.5312C2.05952 27.1271 1.8185 26.5883 1.7866 26.0177C1.66406 23.9415 1.66406 21.9815 1.66406 21.9815" stroke="#383838" stroke-width="1.66667" stroke-linecap="round" stroke-linejoin="round"/>
<path id="Union" d="M10.7796 9.36211C10.1244 9.38624 9.55806 9.41418 9.07997 9.44211C8.52839 9.46968 8.00562 9.69673 7.60897 10.081C7.21232 10.4653 6.96881 10.9806 6.92377 11.531C6.80509 12.8971 6.7445 14.2677 6.74219 15.6389C6.74219 17.2313 6.82981 18.672 6.92314 19.7469C6.96818 20.2973 7.21169 20.8126 7.60834 21.1969C8.00499 21.5811 8.52775 21.8082 9.07933 21.8358C10.3879 21.912 12.3587 21.9881 14.9955 21.9881C17.633 21.9881 19.6038 21.912 20.9123 21.8358C21.4639 21.8082 21.9867 21.5811 22.3833 21.1969C22.78 20.8126 23.0235 20.2973 23.0685 19.7469C23.1619 18.672 23.2495 17.2313 23.2495 15.6389C23.2495 14.0466 23.1619 12.6059 23.0685 11.531C23.0235 10.9806 22.78 10.4653 22.3833 10.081C21.9867 9.69673 21.4639 9.46968 20.9123 9.44211C20.4343 9.41418 19.8679 9.38624 19.2127 9.36211L18.6381 7.93989C18.3841 7.31196 17.8158 6.86815 17.1403 6.82116C16.4264 6.77247 15.7111 6.74875 14.9955 6.75005C14.2802 6.74908 13.5651 6.7728 12.8514 6.82116C12.1758 6.86815 11.6069 7.31259 11.3536 7.93989L10.7796 9.36211Z" stroke="#383838" stroke-width="1.66667" stroke-linecap="round" stroke-linejoin="round"/>
<path id="Ellipse 40" d="M11.8203 15.0027C11.8203 15.8447 12.1548 16.6522 12.7501 17.2475C13.3455 17.8429 14.153 18.1773 14.9949 18.1773C15.8369 18.1773 16.6443 17.8429 17.2397 17.2475C17.8351 16.6522 18.1695 15.8447 18.1695 15.0027C18.1695 14.1608 17.8351 13.3533 17.2397 12.7579C16.6443 12.1626 15.8369 11.8281 14.9949 11.8281C14.153 11.8281 13.3455 12.1626 12.7501 12.7579C12.1548 13.3533 11.8203 14.1608 11.8203 15.0027Z" stroke="#383838" stroke-width="1.66667" stroke-linecap="round" stroke-linejoin="round"/>
</g>
</svg>
