<svg width="18" height="18" viewBox="0 0 18 18" fill="none" xmlns="http://www.w3.org/2000/svg">
<g id="Zoom Out" clip-path="url(#clip0_5744_179644)">
<path id="Vector" d="M13.8609 7.48056C13.8611 8.72537 13.4921 9.94227 12.8006 10.9774C12.1091 12.0125 11.1262 12.8193 9.97619 13.2957C8.82617 13.7722 7.56068 13.8969 6.33977 13.6542C5.11885 13.4114 3.99735 12.812 3.11708 11.9318C2.23682 11.0517 1.63733 9.93024 1.39442 8.70936C1.15152 7.48847 1.27612 6.22297 1.75246 5.0729C2.2288 3.92282 3.03548 2.93983 4.0705 2.24824C5.10552 1.55664 6.32238 1.1875 7.56719 1.1875C9.23628 1.1875 10.837 1.85049 12.0173 3.03065C13.1976 4.21081 13.8608 5.81147 13.8609 7.48056Z" stroke="#383838" stroke-width="1.67" stroke-linecap="round" stroke-linejoin="round"/>
<path id="Vector_2" d="M4.78906 7.4362H9.9974M7.39323 4.83203V10.0404" stroke="#383838" stroke-width="1.67" stroke-miterlimit="10" stroke-linecap="round"/>
<path id="Vector_3" d="M12.0156 11.9297L16.8969 16.8116" stroke="#383838" stroke-width="1.67" stroke-linecap="round" stroke-linejoin="round"/>
</g>
<defs>
<clipPath id="clip0_5744_179644">
<rect width="16.6667" height="16.6667" fill="white" transform="translate(0.75 0.667969)"/>
</clipPath>
</defs>
</svg>
