<svg xmlns="http://www.w3.org/2000/svg" width="97" height="81" viewBox="0 0 97 81" fill="none">
  <path d="M28.2886 70.7985C22.8448 70.4466 17.6723 68.6551 13.5096 65.6801C9.34695 62.7051 6.40693 58.6985 5.10938 54.2325C3.81183 49.7666 4.2231 45.0695 6.28445 40.8121C8.3458 36.5547 11.9518 32.9546 16.5877 30.5259C17.5741 24.049 21.3294 18.0967 27.1508 13.783C32.9723 9.46934 40.4608 7.08984 48.2151 7.08984C55.9694 7.08984 63.458 9.46934 69.2794 13.783C75.1009 18.0967 78.8562 24.049 79.8426 30.5259C84.4784 32.9546 88.0845 36.5547 90.1458 40.8121C92.2072 45.0695 92.6184 49.7666 91.3209 54.2325C90.0233 58.6985 87.0833 62.7051 82.9206 65.6801C78.758 68.6551 73.5855 70.4466 68.1417 70.7985V70.8623H28.2886V70.7985ZM52.2005 44.0139H64.1564L48.2151 27.2336L32.2739 44.0139H44.2298V57.4381H52.2005V44.0139Z" fill="#DADCE0"/>
</svg>