<svg width="14" height="14" viewBox="0 0 14 14" fill="none" xmlns="http://www.w3.org/2000/svg">
<g clip-path="url(#clip0_5580_86500)">
<path d="M4.30437 6.63281C4.07356 6.88589 3.79095 7.08628 3.47576 7.22038C3.16058 7.35447 2.82021 7.41912 2.47781 7.40992H1.66406C1.4465 7.40992 1.23785 7.49635 1.08401 7.65019C0.930176 7.80402 0.84375 8.01267 0.84375 8.23023C0.84375 8.44779 0.930176 8.65644 1.08401 8.81028C1.23785 8.96412 1.4465 9.05055 1.66406 9.05055H2.47781C2.82021 9.04135 3.16058 9.10599 3.47576 9.24009C3.79095 9.37418 4.07356 9.57458 4.30437 9.82766C4.53541 10.0982 4.82234 10.3154 5.14542 10.4644C5.46849 10.6133 5.82002 10.6905 6.17578 10.6905C6.53154 10.6905 6.88307 10.6133 7.20614 10.4644C7.52922 10.3154 7.81616 10.0982 8.04719 9.82766C8.27803 9.57461 8.56064 9.37423 8.87582 9.24014C9.191 9.10605 9.53135 9.04138 9.87375 9.05055H10.6875C10.9051 9.05055 11.1137 8.96412 11.2675 8.81028C11.4214 8.65644 11.5078 8.44779 11.5078 8.23023" stroke="#4B5A6B" stroke-width="0.875" stroke-linecap="round" stroke-linejoin="round"/>
<path d="M0.84375 5.76953H2.48437" stroke="#4B5A6B" stroke-width="0.875" stroke-linecap="round" stroke-linejoin="round"/>
<path d="M3.68258 9.33203C2.72721 10.0023 2.05025 10.999 1.77946 12.1342C1.75124 12.2552 1.7506 12.3811 1.7776 12.5024C1.8046 12.6237 1.85854 12.7373 1.93542 12.835C2.01231 12.9326 2.11017 13.0117 2.22176 13.0664C2.33335 13.121 2.45582 13.1499 2.58008 13.1509H3.31071" stroke="#4B5A6B" stroke-width="0.875" stroke-linecap="round" stroke-linejoin="round"/>
<path d="M8.67969 9.33203C9.63524 10.0021 10.3123 10.9989 10.5828 12.1342C10.611 12.2552 10.6117 12.3811 10.5847 12.5024C10.5577 12.6237 10.5037 12.7373 10.4268 12.835C10.35 12.9326 10.2521 13.0117 10.1405 13.0664C10.0289 13.121 9.90645 13.1499 9.78219 13.1509H9.05156" stroke="#4B5A6B" stroke-width="0.875" stroke-linecap="round" stroke-linejoin="round"/>
<path d="M4.95312 11.9219C4.95312 12.2482 5.08276 12.5612 5.31352 12.7919C5.54428 13.0227 5.85725 13.1523 6.18359 13.1523C6.50993 13.1523 6.82291 13.0227 7.05367 12.7919C7.28442 12.5612 7.41406 12.2482 7.41406 11.9219C7.41406 11.5955 7.28442 11.2826 7.05367 11.0518C6.82291 10.821 6.50993 10.6914 6.18359 10.6914C5.85725 10.6914 5.54428 10.821 5.31352 11.0518C5.08276 11.2826 4.95313 11.5955 4.95312 11.9219Z" stroke="#4B5A6B" stroke-width="0.875" stroke-linecap="round" stroke-linejoin="round"/>
<path d="M12.3281 1.66797H11.5078L10.6875 0.847656H8.22656L7.40625 1.66797H6.58594C6.36838 1.66797 6.15973 1.75439 6.00589 1.90823C5.85205 2.06207 5.76562 2.27072 5.76562 2.48828V5.76953C5.76562 5.98709 5.85205 6.19574 6.00589 6.34958C6.15973 6.50342 6.36838 6.58984 6.58594 6.58984H12.3281C12.5457 6.58984 12.7543 6.50342 12.9082 6.34958C13.062 6.19574 13.1484 5.98709 13.1484 5.76953V2.48828C13.1484 2.27072 13.062 2.06207 12.9082 1.90823C12.7543 1.75439 12.5457 1.66797 12.3281 1.66797Z" stroke="#4B5A6B" stroke-width="0.875" stroke-linecap="round" stroke-linejoin="round"/>
<path d="M8.23438 4.12891C8.23438 4.45525 8.36401 4.76822 8.59477 4.99898C8.82553 5.22974 9.1385 5.35937 9.46484 5.35937C9.79118 5.35937 10.1042 5.22974 10.3349 4.99898C10.5657 4.76822 10.6953 4.45525 10.6953 4.12891C10.6953 3.80257 10.5657 3.48959 10.3349 3.25883C10.1042 3.02808 9.79118 2.89844 9.46484 2.89844C9.1385 2.89844 8.82553 3.02808 8.59477 3.25883C8.36401 3.48959 8.23438 3.80257 8.23438 4.12891Z" stroke="#4B5A6B" stroke-width="0.875" stroke-linecap="round" stroke-linejoin="round"/>
</g>
<defs>
<clipPath id="clip0_5580_86500">
<rect width="14" height="14" fill="white"/>
</clipPath>
</defs>
</svg>
