<svg width="20" height="20" viewBox="0 0 20 20" fill="none" xmlns="http://www.w3.org/2000/svg">
<g clip-path="url(#clip0_5664_28916)">
<path d="M4.49291 7.4878C4.33834 7.57849 4.20664 7.70341 4.10791 7.85298C4.00919 8.00254 3.94609 8.17275 3.92345 8.35052C3.90081 8.52829 3.91925 8.70889 3.97734 8.87842C4.03543 9.04795 4.13163 9.20189 4.25854 9.32842L10.6749 15.7448C10.8015 15.8717 10.9554 15.9679 11.1249 16.026C11.2945 16.0841 11.4751 16.1026 11.6528 16.0799C11.8306 16.0573 12.0008 15.9942 12.1504 15.8955C12.3 15.7967 12.4249 15.665 12.5156 15.5105C13.2756 14.2029 13.5022 12.6527 13.1484 11.1823L18.2492 7.93624C18.3972 7.84206 18.5223 7.71584 18.615 7.56688C18.7078 7.41793 18.7659 7.25004 18.7851 7.07562C18.8043 6.9012 18.7841 6.72469 18.7259 6.55913C18.6678 6.39356 18.5732 6.24317 18.4492 6.11905L13.8843 1.5542C13.7602 1.43013 13.6099 1.33549 13.4444 1.27729C13.2788 1.21909 13.1024 1.1988 12.9279 1.21792C12.7535 1.23704 12.5856 1.29508 12.4366 1.38777C12.2876 1.48045 12.1614 1.60541 12.0671 1.75342L8.82104 6.85499C7.35065 6.50113 5.80044 6.72779 4.49291 7.4878Z" stroke="#0066FF" stroke-linecap="round" stroke-linejoin="round"/>
<path d="M7.46328 12.5352L1.21094 18.7875" stroke="#0066FF" stroke-linecap="round" stroke-linejoin="round"/>
</g>
<defs>
<clipPath id="clip0_5664_28916">
<rect width="20" height="20" fill="white"/>
</clipPath>
</defs>
</svg>
