<svg xmlns="http://www.w3.org/2000/svg" width="20" height="20" viewBox="0 0 20 20" fill="none">
  <g clip-path="url(#clip0_5686_212616)">
    <path d="M9.80049 11.2807C10.782 11.2807 11.5776 10.4851 11.5776 9.5036C11.5776 8.52219 10.782 7.72656 9.80049 7.72656C8.81907 7.72656 8.02344 8.52219 8.02344 9.5036C8.02344 10.4851 8.81907 11.2807 9.80049 11.2807Z" stroke="#4F4F4F" stroke-miterlimit="10" stroke-linecap="round" stroke-linejoin="round"/>
    <path d="M12.7849 14.0431C12.3957 12.7683 11.1907 11.8125 9.80643 11.8125C8.42227 11.8125 7.21722 12.7683 6.82812 14.0431" stroke="#4F4F4F" stroke-miterlimit="10" stroke-linecap="round" stroke-linejoin="round"/>
    <path d="M17.6227 10.8863C17.6227 8.22434 16.2925 5.87308 14.2606 4.46094M5.34649 4.46094C3.31456 5.87308 1.98438 8.22434 1.98438 10.8863C1.98438 11.1431 1.99676 11.3971 2.02097 11.6476M11.5387 18.5122C10.9806 18.6386 10.3998 18.7055 9.80351 18.7055C8.57401 18.7055 7.41075 18.4216 6.37572 17.916" stroke="#4F4F4F" stroke-linecap="round"/>
    <path d="M0.78125 15.7384C0.78125 16.2927 1.00145 16.8243 1.3934 17.2163C1.78535 17.6082 2.31695 17.8284 2.87125 17.8284C3.42555 17.8284 3.95715 17.6082 4.3491 17.2163C4.74105 16.8243 4.96125 16.2927 4.96125 15.7384C4.96125 15.1841 4.74105 14.6525 4.3491 14.2606C3.95715 13.8686 3.42555 13.6484 2.87125 13.6484C2.31695 13.6484 1.78535 13.8686 1.3934 14.2606C1.00145 14.6525 0.78125 15.1841 0.78125 15.7384Z" stroke="#4F4F4F"/>
    <path d="M11.7748 5.23578H7.83594V1.29688H11.7748V5.23578Z" stroke="#4F4F4F" stroke-linejoin="round"/>
    <path d="M14.1562 17.7882L16.6851 13.4688L19.2139 17.7882H14.1562Z" stroke="#4F4F4F" stroke-linecap="round" stroke-linejoin="round"/>
  </g>
  <defs>
    <clipPath id="clip0_5686_212616">
      <rect width="20" height="20" fill="white"/>
    </clipPath>
  </defs>
</svg>