<svg xmlns="http://www.w3.org/2000/svg" width="20" height="20" viewBox="0 0 20 20" fill="none">
  <g clip-path="url(#clip0_5499_122791)">
    <path d="M17.6831 6.16016H6.16312C5.90852 6.16016 5.66434 6.2613 5.4843 6.44133C5.30427 6.62137 5.20313 6.86555 5.20312 7.12016V16.7202C5.20312 16.9748 5.30427 17.2189 5.4843 17.399C5.66434 17.579 5.90852 17.6802 6.16312 17.6802H17.6831C17.9377 17.6802 18.1819 17.579 18.3619 17.399C18.542 17.2189 18.6431 16.9748 18.6431 16.7202V7.12016C18.6431 6.86555 18.542 6.62137 18.3619 6.44133C18.1819 6.2613 17.9377 6.16016 17.6831 6.16016Z" stroke="#383838" stroke-width="1.5" stroke-linecap="round" stroke-linejoin="round"/>
    <path d="M1.35938 13.6195V3.64895C1.35938 3.29658 1.49936 2.95863 1.74852 2.70946C1.99769 2.46029 2.33564 2.32031 2.68802 2.32031H14.6515" stroke="#383838" stroke-width="1.5" stroke-linecap="round" stroke-linejoin="round"/>
    <path d="M6.15625 17.6794L10.9217 12.3649C11.044 12.2257 11.1947 12.1142 11.3635 12.0378C11.5324 11.9614 11.7156 11.9219 11.9009 11.9219C12.0862 11.9219 12.2694 11.9614 12.4383 12.0378C12.6071 12.1142 12.7577 12.2257 12.8801 12.3649L17.6763 17.6449" stroke="#383838" stroke-width="1.5" stroke-linecap="round" stroke-linejoin="round"/>
  </g>
  <defs>
    <clipPath id="clip0_5499_122791">
      <rect width="19.2" height="19.2" fill="white" transform="translate(0.398438 0.398438)"/>
    </clipPath>
  </defs>
</svg>