<svg xmlns="http://www.w3.org/2000/svg" width="22" height="22" viewBox="0 0 22 22" fill="none">
  <g clip-path="url(#clip0_5499_122805)">
    <path d="M14.7987 10.2366C14.7987 11.247 14.3974 12.2159 13.683 12.9303C12.9685 13.6448 11.9996 14.0461 10.9892 14.0461C9.97886 14.0461 9.0099 13.6448 8.29547 12.9303C7.58105 12.2159 7.17969 11.247 7.17969 10.2366V4.90327C7.17969 3.89292 7.58105 2.92396 8.29547 2.20953C9.0099 1.49511 9.97886 1.09375 10.9892 1.09375C11.9996 1.09375 12.9685 1.49511 13.683 2.20953C14.3974 2.92396 14.7987 3.89292 14.7987 4.90327V10.2366Z" stroke="#F0F0F0" stroke-width="2" stroke-linecap="round" stroke-linejoin="round"/>
    <path d="M18.6053 11C18.6073 11.9011 18.4313 12.7936 18.0874 13.6265C17.7435 14.4593 17.2385 15.2161 16.6014 15.8532C15.9642 16.4904 15.2075 16.9954 14.3746 17.3393C13.5418 17.6832 12.6492 17.8592 11.7482 17.8571H10.2243C9.32329 17.8592 8.43071 17.6832 7.59786 17.3393C6.765 16.9954 6.00828 16.4904 5.37114 15.8532C4.73399 15.2161 4.22897 14.4593 3.88508 13.6265C3.54119 12.7936 3.3652 11.9011 3.3672 11" stroke="#F0F0F0" stroke-width="2" stroke-linecap="round" stroke-linejoin="round"/>
    <path d="M10.9922 17.8555V20.9031" stroke="#F0F0F0" stroke-width="2" stroke-linecap="round" stroke-linejoin="round"/>
  </g>
  <defs>
    <clipPath id="clip0_5499_122805">
      <rect x="0.328125" y="0.332031" width="21.3333" height="21.3333" rx="10.6667" fill="white"/>
    </clipPath>
  </defs>
</svg>